<svg width="390" height="844" viewBox="0 0 390 844" fill="none" xmlns="http://www.w3.org/2000/svg">
<rect width="390" height="844" fill="#FFFFBA"/>
<path d="M361.5 15C361.775 15 362 15.225 362 15.5V20.5C362 20.775 361.775 21 361.5 21H349.5C349.225 21 349 20.775 349 20.5V15.5C349 15.225 349.225 15 349.5 15H361.5ZM349.5 13C348.119 13 347 14.1187 347 15.5V20.5C347 21.8813 348.119 23 349.5 23H361.5C362.881 23 364 21.8813 364 20.5V20C364.553 20 365 19.5531 365 19V17C365 16.4469 364.553 16 364 16V15.5C364 14.1187 362.881 13 361.5 13H349.5ZM358 16H350V20H358V16Z" fill="black"/>
<path d="M316.694 16.3406C318.85 14.2719 321.775 13 325 13C328.225 13 331.15 14.2719 333.306 16.3406C333.706 16.7219 334.337 16.7094 334.719 16.3125C335.1 15.9156 335.087 15.2812 334.69 14.9C332.178 12.4844 328.762 11 325 11C321.237 11 317.822 12.4844 315.306 14.8969C314.909 15.2812 314.897 15.9125 315.278 16.3125C315.659 16.7125 316.294 16.725 316.69 16.3406H316.694ZM325 18C326.775 18 328.394 18.6594 329.631 19.75C330.047 20.1156 330.678 20.075 331.044 19.6625C331.409 19.25 331.369 18.6156 330.956 18.25C329.369 16.85 327.281 16 325 16C322.719 16 320.631 16.85 319.047 18.25C318.631 18.6156 318.594 19.2469 318.959 19.6625C319.325 20.0781 319.956 20.1156 320.372 19.75C321.606 18.6594 323.225 18 325.003 18H325ZM327 23C327 22.4696 326.789 21.9609 326.414 21.5858C326.039 21.2107 325.53 21 325 21C324.469 21 323.961 21.2107 323.586 21.5858C323.211 21.9609 323 22.4696 323 23C323 23.5304 323.211 24.0391 323.586 24.4142C323.961 24.7893 324.469 25 325 25C325.53 25 326.039 24.7893 326.414 24.4142C326.789 24.0391 327 23.5304 327 23Z" fill="black"/>
<path d="M301 10C301.553 10 302 10.4469 302 11V25C302 25.5531 301.553 26 301 26C300.447 26 300 25.5531 300 25V11C300 10.4469 300.447 10 301 10ZM297 13C297.553 13 298 13.4469 298 14V25C298 25.5531 297.553 26 297 26C296.447 26 296 25.5531 296 25V14C296 13.4469 296.447 13 297 13ZM294 17V25C294 25.5531 293.553 26 293 26C292.447 26 292 25.5531 292 25V17C292 16.4469 292.447 16 293 16C293.553 16 294 16.4469 294 17ZM289 19C289.553 19 290 19.4469 290 20V25C290 25.5531 289.553 26 289 26C288.447 26 288 25.5531 288 25V20C288 19.4469 288.447 19 289 19ZM286 23V25C286 25.5531 285.553 26 285 26C284.447 26 284 25.5531 284 25V23C284 22.4469 284.447 22 285 22C285.553 22 286 22.4469 286 23Z" fill="black"/>
<path d="M44.755 14.655L40.765 24H38.635L42.655 14.895H37.525V13.095H44.755V14.655ZM47.1828 24.105C46.8028 24.105 46.4878 23.99 46.2378 23.76C45.9978 23.52 45.8778 23.225 45.8778 22.875C45.8778 22.525 45.9978 22.235 46.2378 22.005C46.4878 21.765 46.8028 21.645 47.1828 21.645C47.5528 21.645 47.8578 21.765 48.0978 22.005C48.3378 22.235 48.4578 22.525 48.4578 22.875C48.4578 23.225 48.3378 23.52 48.0978 23.76C47.8578 23.99 47.5528 24.105 47.1828 24.105ZM47.1828 17.895C46.8028 17.895 46.4878 17.78 46.2378 17.55C45.9978 17.31 45.8778 17.015 45.8778 16.665C45.8778 16.315 45.9978 16.025 46.2378 15.795C46.4878 15.555 46.8028 15.435 47.1828 15.435C47.5528 15.435 47.8578 15.555 48.0978 15.795C48.3378 16.025 48.4578 16.315 48.4578 16.665C48.4578 17.015 48.3378 17.31 48.0978 17.55C47.8578 17.78 47.5528 17.895 47.1828 17.895ZM49.8632 21.87V20.22L54.7682 13.2H57.2132V20.04H58.5332V21.87H57.2132V24H55.1132V21.87H49.8632ZM55.2482 15.45L52.1732 20.04H55.2482V15.45ZM59.8702 18.39C59.8702 16.66 60.1802 15.305 60.8002 14.325C61.4302 13.345 62.4702 12.855 63.9202 12.855C65.3702 12.855 66.4052 13.345 67.0252 14.325C67.6552 15.305 67.9702 16.66 67.9702 18.39C67.9702 20.13 67.6552 21.495 67.0252 22.485C66.4052 23.475 65.3702 23.97 63.9202 23.97C62.4702 23.97 61.4302 23.475 60.8002 22.485C60.1802 21.495 59.8702 20.13 59.8702 18.39ZM65.9002 18.39C65.9002 17.65 65.8502 17.03 65.7502 16.53C65.6602 16.02 65.4702 15.605 65.1802 15.285C64.9002 14.965 64.4802 14.805 63.9202 14.805C63.3602 14.805 62.9352 14.965 62.6452 15.285C62.3652 15.605 62.1752 16.02 62.0752 16.53C61.9852 17.03 61.9402 17.65 61.9402 18.39C61.9402 19.15 61.9852 19.79 62.0752 20.31C62.1652 20.82 62.3552 21.235 62.6452 21.555C62.9352 21.865 63.3602 22.02 63.9202 22.02C64.4802 22.02 64.9052 21.865 65.1952 21.555C65.4852 21.235 65.6752 20.82 65.7652 20.31C65.8552 19.79 65.9002 19.15 65.9002 18.39ZM72.8417 19.815C72.8417 18.975 73.0067 18.23 73.3367 17.58C73.6767 16.93 74.1317 16.43 74.7017 16.08C75.2817 15.73 75.9267 15.555 76.6367 15.555C77.2567 15.555 77.7967 15.68 78.2567 15.93C78.7267 16.18 79.1017 16.495 79.3817 16.875V15.69H81.4967V24H79.3817V22.785C79.1117 23.175 78.7367 23.5 78.2567 23.76C77.7867 24.01 77.2417 24.135 76.6217 24.135C75.9217 24.135 75.2817 23.955 74.7017 23.595C74.1317 23.235 73.6767 22.73 73.3367 22.08C73.0067 21.42 72.8417 20.665 72.8417 19.815ZM79.3817 19.845C79.3817 19.335 79.2817 18.9 79.0817 18.54C78.8817 18.17 78.6117 17.89 78.2717 17.7C77.9317 17.5 77.5667 17.4 77.1767 17.4C76.7867 17.4 76.4267 17.495 76.0967 17.685C75.7667 17.875 75.4967 18.155 75.2867 18.525C75.0867 18.885 74.9867 19.315 74.9867 19.815C74.9867 20.315 75.0867 20.755 75.2867 21.135C75.4967 21.505 75.7667 21.79 76.0967 21.99C76.4367 22.19 76.7967 22.29 77.1767 22.29C77.5667 22.29 77.9317 22.195 78.2717 22.005C78.6117 21.805 78.8817 21.525 79.0817 21.165C79.2817 20.795 79.3817 20.355 79.3817 19.845ZM93.8677 15.57C94.8877 15.57 95.7077 15.885 96.3277 16.515C96.9577 17.135 97.2727 18.005 97.2727 19.125V24H95.1727V19.41C95.1727 18.76 95.0077 18.265 94.6777 17.925C94.3477 17.575 93.8977 17.4 93.3277 17.4C92.7577 17.4 92.3027 17.575 91.9627 17.925C91.6327 18.265 91.4677 18.76 91.4677 19.41V24H89.3677V19.41C89.3677 18.76 89.2027 18.265 88.8727 17.925C88.5427 17.575 88.0927 17.4 87.5227 17.4C86.9427 17.4 86.4827 17.575 86.1427 17.925C85.8127 18.265 85.6477 18.76 85.6477 19.41V24H83.5477V15.69H85.6477V16.695C85.9177 16.345 86.2627 16.07 86.6827 15.87C87.1127 15.67 87.5827 15.57 88.0927 15.57C88.7427 15.57 89.3227 15.71 89.8327 15.99C90.3427 16.26 90.7377 16.65 91.0177 17.16C91.2877 16.68 91.6777 16.295 92.1877 16.005C92.7077 15.715 93.2677 15.57 93.8677 15.57Z" fill="black"/>
<path d="M136.321 134.04L132.421 148H129.121L126.501 138.06L123.761 148L120.481 148.02L116.721 134.04H119.721L122.181 144.88L125.021 134.04H128.141L130.821 144.82L133.301 134.04H136.321ZM148.45 142.22C148.45 142.62 148.423 142.98 148.37 143.3H140.27C140.336 144.1 140.616 144.727 141.11 145.18C141.603 145.633 142.21 145.86 142.93 145.86C143.97 145.86 144.71 145.413 145.15 144.52H148.17C147.85 145.587 147.236 146.467 146.33 147.16C145.423 147.84 144.31 148.18 142.99 148.18C141.923 148.18 140.963 147.947 140.11 147.48C139.27 147 138.61 146.327 138.13 145.46C137.663 144.593 137.43 143.593 137.43 142.46C137.43 141.313 137.663 140.307 138.13 139.44C138.596 138.573 139.25 137.907 140.09 137.44C140.93 136.973 141.896 136.74 142.99 136.74C144.043 136.74 144.983 136.967 145.81 137.42C146.65 137.873 147.296 138.52 147.75 139.36C148.216 140.187 148.45 141.14 148.45 142.22ZM145.55 141.42C145.536 140.7 145.276 140.127 144.77 139.7C144.263 139.26 143.643 139.04 142.91 139.04C142.216 139.04 141.63 139.253 141.15 139.68C140.683 140.093 140.396 140.673 140.29 141.42H145.55ZM153.293 133.2V148H150.493V133.2H153.293ZM155.34 142.46C155.34 141.313 155.573 140.313 156.04 139.46C156.506 138.593 157.153 137.927 157.98 137.46C158.806 136.98 159.753 136.74 160.82 136.74C162.193 136.74 163.326 137.087 164.22 137.78C165.126 138.46 165.733 139.42 166.04 140.66H163.02C162.86 140.18 162.586 139.807 162.2 139.54C161.826 139.26 161.36 139.12 160.8 139.12C160 139.12 159.366 139.413 158.9 140C158.433 140.573 158.2 141.393 158.2 142.46C158.2 143.513 158.433 144.333 158.9 144.92C159.366 145.493 160 145.78 160.8 145.78C161.933 145.78 162.673 145.273 163.02 144.26H166.04C165.733 145.46 165.126 146.413 164.22 147.12C163.313 147.827 162.18 148.18 160.82 148.18C159.753 148.18 158.806 147.947 157.98 147.48C157.153 147 156.506 146.333 156.04 145.48C155.573 144.613 155.34 143.607 155.34 142.46ZM173.011 148.18C171.944 148.18 170.984 147.947 170.131 147.48C169.278 147 168.604 146.327 168.111 145.46C167.631 144.593 167.391 143.593 167.391 142.46C167.391 141.327 167.638 140.327 168.131 139.46C168.638 138.593 169.324 137.927 170.191 137.46C171.058 136.98 172.024 136.74 173.091 136.74C174.158 136.74 175.124 136.98 175.991 137.46C176.858 137.927 177.538 138.593 178.031 139.46C178.538 140.327 178.791 141.327 178.791 142.46C178.791 143.593 178.531 144.593 178.011 145.46C177.504 146.327 176.811 147 175.931 147.48C175.064 147.947 174.091 148.18 173.011 148.18ZM173.011 145.74C173.518 145.74 173.991 145.62 174.431 145.38C174.884 145.127 175.244 144.753 175.511 144.26C175.778 143.767 175.911 143.167 175.911 142.46C175.911 141.407 175.631 140.6 175.071 140.04C174.524 139.467 173.851 139.18 173.051 139.18C172.251 139.18 171.578 139.467 171.031 140.04C170.498 140.6 170.231 141.407 170.231 142.46C170.231 143.513 170.491 144.327 171.011 144.9C171.544 145.46 172.211 145.74 173.011 145.74ZM194.605 136.76C195.965 136.76 197.058 137.18 197.885 138.02C198.725 138.847 199.145 140.007 199.145 141.5V148H196.345V141.88C196.345 141.013 196.125 140.353 195.685 139.9C195.245 139.433 194.645 139.2 193.885 139.2C193.125 139.2 192.518 139.433 192.065 139.9C191.625 140.353 191.405 141.013 191.405 141.88V148H188.605V141.88C188.605 141.013 188.385 140.353 187.945 139.9C187.505 139.433 186.905 139.2 186.145 139.2C185.372 139.2 184.758 139.433 184.305 139.9C183.865 140.353 183.645 141.013 183.645 141.88V148H180.845V136.92H183.645V138.26C184.005 137.793 184.465 137.427 185.025 137.16C185.598 136.893 186.225 136.76 186.905 136.76C187.772 136.76 188.545 136.947 189.225 137.32C189.905 137.68 190.432 138.2 190.805 138.88C191.165 138.24 191.685 137.727 192.365 137.34C193.058 136.953 193.805 136.76 194.605 136.76ZM212.102 142.22C212.102 142.62 212.075 142.98 212.022 143.3H203.922C203.989 144.1 204.269 144.727 204.762 145.18C205.255 145.633 205.862 145.86 206.582 145.86C207.622 145.86 208.362 145.413 208.802 144.52H211.822C211.502 145.587 210.889 146.467 209.982 147.16C209.075 147.84 207.962 148.18 206.642 148.18C205.575 148.18 204.615 147.947 203.762 147.48C202.922 147 202.262 146.327 201.782 145.46C201.315 144.593 201.082 143.593 201.082 142.46C201.082 141.313 201.315 140.307 201.782 139.44C202.249 138.573 202.902 137.907 203.742 137.44C204.582 136.973 205.549 136.74 206.642 136.74C207.695 136.74 208.635 136.967 209.462 137.42C210.302 137.873 210.949 138.52 211.402 139.36C211.869 140.187 212.102 141.14 212.102 142.22ZM209.202 141.42C209.189 140.7 208.929 140.127 208.422 139.7C207.915 139.26 207.295 139.04 206.562 139.04C205.869 139.04 205.282 139.253 204.802 139.68C204.335 140.093 204.049 140.673 203.942 141.42H209.202ZM226.831 140.84C227.618 140.987 228.265 141.38 228.771 142.02C229.278 142.66 229.531 143.393 229.531 144.22C229.531 144.967 229.345 145.627 228.971 146.2C228.611 146.76 228.085 147.2 227.391 147.52C226.698 147.84 225.878 148 224.931 148H218.911V134.04H224.671C225.618 134.04 226.431 134.193 227.111 134.5C227.805 134.807 228.325 135.233 228.671 135.78C229.031 136.327 229.211 136.947 229.211 137.64C229.211 138.453 228.991 139.133 228.551 139.68C228.125 140.227 227.551 140.613 226.831 140.84ZM221.711 139.8H224.271C224.938 139.8 225.451 139.653 225.811 139.36C226.171 139.053 226.351 138.62 226.351 138.06C226.351 137.5 226.171 137.067 225.811 136.76C225.451 136.453 224.938 136.3 224.271 136.3H221.711V139.8ZM224.531 145.72C225.211 145.72 225.738 145.56 226.111 145.24C226.498 144.92 226.691 144.467 226.691 143.88C226.691 143.28 226.491 142.813 226.091 142.48C225.691 142.133 225.151 141.96 224.471 141.96H221.711V145.72H224.531ZM231.043 142.42C231.043 141.3 231.263 140.307 231.703 139.44C232.156 138.573 232.763 137.907 233.523 137.44C234.296 136.973 235.156 136.74 236.103 136.74C236.929 136.74 237.649 136.907 238.263 137.24C238.889 137.573 239.389 137.993 239.763 138.5V136.92H242.583V148H239.763V146.38C239.403 146.9 238.903 147.333 238.263 147.68C237.636 148.013 236.909 148.18 236.083 148.18C235.149 148.18 234.296 147.94 233.523 147.46C232.763 146.98 232.156 146.307 231.703 145.44C231.263 144.56 231.043 143.553 231.043 142.42ZM239.763 142.46C239.763 141.78 239.629 141.2 239.363 140.72C239.096 140.227 238.736 139.853 238.283 139.6C237.829 139.333 237.343 139.2 236.823 139.2C236.303 139.2 235.823 139.327 235.383 139.58C234.943 139.833 234.583 140.207 234.303 140.7C234.036 141.18 233.903 141.753 233.903 142.42C233.903 143.087 234.036 143.673 234.303 144.18C234.583 144.673 234.943 145.053 235.383 145.32C235.836 145.587 236.316 145.72 236.823 145.72C237.343 145.72 237.829 145.593 238.283 145.34C238.736 145.073 239.096 144.7 239.363 144.22C239.629 143.727 239.763 143.14 239.763 142.46ZM244.597 142.46C244.597 141.313 244.831 140.313 245.298 139.46C245.764 138.593 246.411 137.927 247.238 137.46C248.064 136.98 249.011 136.74 250.078 136.74C251.451 136.74 252.584 137.087 253.478 137.78C254.384 138.46 254.991 139.42 255.298 140.66H252.278C252.118 140.18 251.844 139.807 251.458 139.54C251.084 139.26 250.618 139.12 250.058 139.12C249.258 139.12 248.624 139.413 248.158 140C247.691 140.573 247.458 141.393 247.458 142.46C247.458 143.513 247.691 144.333 248.158 144.92C248.624 145.493 249.258 145.78 250.058 145.78C251.191 145.78 251.931 145.273 252.278 144.26H255.298C254.991 145.46 254.384 146.413 253.478 147.12C252.571 147.827 251.438 148.18 250.078 148.18C249.011 148.18 248.064 147.947 247.238 147.48C246.411 147 245.764 146.333 245.298 145.48C244.831 144.613 244.597 143.607 244.597 142.46ZM263.909 148L260.149 143.28V148H257.349V133.2H260.149V141.62L263.869 136.92H267.509L262.629 142.48L267.549 148H263.909ZM272.648 133.8L272.328 143.46H269.968L269.628 133.8H272.648ZM271.208 148.14C270.702 148.14 270.282 147.987 269.948 147.68C269.628 147.36 269.468 146.967 269.468 146.5C269.468 146.033 269.628 145.647 269.948 145.34C270.282 145.02 270.702 144.86 271.208 144.86C271.702 144.86 272.108 145.02 272.428 145.34C272.748 145.647 272.908 146.033 272.908 146.5C272.908 146.967 272.748 147.36 272.428 147.68C272.108 147.987 271.702 148.14 271.208 148.14Z" fill="black"/>
<path d="M95.8996 740.939C96.8876 740.939 97.7413 741.125 98.4606 741.498C99.1886 741.862 99.7433 742.386 100.125 743.071C100.515 743.756 100.71 744.562 100.71 745.489C100.71 746.416 100.515 747.222 100.125 747.907C99.7433 748.583 99.1886 749.103 98.4606 749.467C97.7413 749.822 96.8876 750 95.8996 750H93.0786V740.939H95.8996ZM95.8996 749.025C97.0696 749.025 97.9623 748.717 98.5776 748.102C99.193 747.478 99.5006 746.607 99.5006 745.489C99.5006 744.362 99.1886 743.483 98.5646 742.85C97.9493 742.217 97.061 741.901 95.8996 741.901H94.2616V749.025H95.8996ZM105.377 750.117C104.71 750.117 104.103 749.965 103.557 749.662C103.02 749.359 102.595 748.93 102.283 748.375C101.98 747.812 101.828 747.162 101.828 746.425C101.828 745.697 101.984 745.056 102.296 744.501C102.617 743.938 103.05 743.509 103.596 743.214C104.142 742.911 104.753 742.759 105.429 742.759C106.105 742.759 106.716 742.911 107.262 743.214C107.808 743.509 108.237 743.933 108.549 744.488C108.87 745.043 109.03 745.688 109.03 746.425C109.03 747.162 108.865 747.812 108.536 748.375C108.215 748.93 107.778 749.359 107.223 749.662C106.668 749.965 106.053 750.117 105.377 750.117ZM105.377 749.077C105.802 749.077 106.2 748.977 106.573 748.778C106.946 748.579 107.245 748.28 107.47 747.881C107.704 747.482 107.821 746.997 107.821 746.425C107.821 745.853 107.708 745.368 107.483 744.969C107.258 744.57 106.963 744.276 106.599 744.085C106.235 743.886 105.841 743.786 105.416 743.786C104.983 743.786 104.584 743.886 104.22 744.085C103.865 744.276 103.579 744.57 103.362 744.969C103.145 745.368 103.037 745.853 103.037 746.425C103.037 747.006 103.141 747.495 103.349 747.894C103.566 748.293 103.852 748.592 104.207 748.791C104.562 748.982 104.952 749.077 105.377 749.077ZM114.056 742.746C114.923 742.746 115.625 743.01 116.162 743.539C116.7 744.059 116.968 744.813 116.968 745.801V750H115.798V745.97C115.798 745.259 115.621 744.718 115.265 744.345C114.91 743.964 114.425 743.773 113.809 743.773C113.185 743.773 112.687 743.968 112.314 744.358C111.95 744.748 111.768 745.316 111.768 746.061V750H110.585V742.876H111.768V743.89C112.002 743.526 112.319 743.244 112.717 743.045C113.125 742.846 113.571 742.746 114.056 742.746ZM119.083 740.939H120.396L119.148 743.89H118.316L119.083 740.939ZM123.188 743.851V748.05C123.188 748.397 123.261 748.644 123.409 748.791C123.556 748.93 123.812 748.999 124.176 748.999H125.047V750H123.981C123.322 750 122.828 749.848 122.499 749.545C122.169 749.242 122.005 748.743 122.005 748.05V743.851H121.082V742.876H122.005V741.082H123.188V742.876H125.047V743.851H123.188ZM133.482 742.746C134.019 742.746 134.504 742.863 134.938 743.097C135.371 743.322 135.709 743.665 135.952 744.124C136.203 744.583 136.329 745.142 136.329 745.801V750H135.159V745.97C135.159 745.259 134.981 744.718 134.626 744.345C134.27 743.964 133.785 743.773 133.17 743.773C132.546 743.773 132.047 743.968 131.675 744.358C131.311 744.748 131.129 745.316 131.129 746.061V750H129.946V740.38H131.129V743.89C131.363 743.526 131.683 743.244 132.091 743.045C132.507 742.846 132.97 742.746 133.482 742.746ZM137.819 746.412C137.819 745.684 137.967 745.047 138.261 744.501C138.556 743.946 138.959 743.517 139.47 743.214C139.99 742.911 140.567 742.759 141.199 742.759C141.823 742.759 142.365 742.893 142.824 743.162C143.284 743.431 143.626 743.769 143.851 744.176V742.876H145.047V750H143.851V748.674C143.617 749.09 143.266 749.437 142.798 749.714C142.339 749.983 141.802 750.117 141.186 750.117C140.554 750.117 139.982 749.961 139.47 749.649C138.959 749.337 138.556 748.899 138.261 748.336C137.967 747.773 137.819 747.131 137.819 746.412ZM143.851 746.425C143.851 745.888 143.743 745.42 143.526 745.021C143.31 744.622 143.015 744.319 142.642 744.111C142.278 743.894 141.875 743.786 141.433 743.786C140.991 743.786 140.588 743.89 140.224 744.098C139.86 744.306 139.57 744.609 139.353 745.008C139.137 745.407 139.028 745.875 139.028 746.412C139.028 746.958 139.137 747.435 139.353 747.842C139.57 748.241 139.86 748.548 140.224 748.765C140.588 748.973 140.991 749.077 141.433 749.077C141.875 749.077 142.278 748.973 142.642 748.765C143.015 748.548 143.31 748.241 143.526 747.842C143.743 747.435 143.851 746.962 143.851 746.425ZM149.698 748.908L151.908 742.876H153.169L150.374 750H148.996L146.201 742.876H147.475L149.698 748.908ZM160.834 746.165C160.834 746.39 160.821 746.629 160.795 746.88H155.101C155.144 747.582 155.382 748.132 155.816 748.531C156.258 748.921 156.791 749.116 157.415 749.116C157.926 749.116 158.351 748.999 158.689 748.765C159.035 748.522 159.278 748.202 159.417 747.803H160.691C160.5 748.488 160.119 749.047 159.547 749.48C158.975 749.905 158.264 750.117 157.415 750.117C156.739 750.117 156.132 749.965 155.595 749.662C155.066 749.359 154.65 748.93 154.347 748.375C154.043 747.812 153.892 747.162 153.892 746.425C153.892 745.688 154.039 745.043 154.334 744.488C154.628 743.933 155.04 743.509 155.569 743.214C156.106 742.911 156.721 742.759 157.415 742.759C158.091 742.759 158.689 742.906 159.209 743.201C159.729 743.496 160.127 743.903 160.405 744.423C160.691 744.934 160.834 745.515 160.834 746.165ZM159.612 745.918C159.612 745.467 159.512 745.082 159.313 744.761C159.113 744.432 158.84 744.185 158.494 744.02C158.156 743.847 157.779 743.76 157.363 743.76C156.765 743.76 156.253 743.951 155.829 744.332C155.413 744.713 155.174 745.242 155.114 745.918H159.612ZM165.419 746.412C165.419 745.684 165.566 745.047 165.861 744.501C166.156 743.946 166.559 743.517 167.07 743.214C167.59 742.911 168.166 742.759 168.799 742.759C169.423 742.759 169.965 742.893 170.424 743.162C170.883 743.431 171.226 743.769 171.451 744.176V742.876H172.647V750H171.451V748.674C171.217 749.09 170.866 749.437 170.398 749.714C169.939 749.983 169.401 750.117 168.786 750.117C168.153 750.117 167.581 749.961 167.07 749.649C166.559 749.337 166.156 748.899 165.861 748.336C165.566 747.773 165.419 747.131 165.419 746.412ZM171.451 746.425C171.451 745.888 171.343 745.42 171.126 745.021C170.909 744.622 170.615 744.319 170.242 744.111C169.878 743.894 169.475 743.786 169.033 743.786C168.591 743.786 168.188 743.89 167.824 744.098C167.46 744.306 167.17 744.609 166.953 745.008C166.736 745.407 166.628 745.875 166.628 746.412C166.628 746.958 166.736 747.435 166.953 747.842C167.17 748.241 167.46 748.548 167.824 748.765C168.188 748.973 168.591 749.077 169.033 749.077C169.475 749.077 169.878 748.973 170.242 748.765C170.615 748.548 170.909 748.241 171.126 747.842C171.343 747.435 171.451 746.962 171.451 746.425ZM178.117 742.746C178.984 742.746 179.686 743.01 180.223 743.539C180.76 744.059 181.029 744.813 181.029 745.801V750H179.859V745.97C179.859 745.259 179.681 744.718 179.326 744.345C178.971 743.964 178.485 743.773 177.87 743.773C177.246 743.773 176.748 743.968 176.375 744.358C176.011 744.748 175.829 745.316 175.829 746.061V750H174.646V742.876H175.829V743.89C176.063 743.526 176.379 743.244 176.778 743.045C177.185 742.846 177.632 742.746 178.117 742.746ZM185.985 746.412C185.985 745.684 186.133 745.047 186.427 744.501C186.722 743.946 187.125 743.517 187.636 743.214C188.156 742.911 188.733 742.759 189.365 742.759C189.989 742.759 190.531 742.893 190.99 743.162C191.45 743.431 191.792 743.769 192.017 744.176V742.876H193.213V750H192.017V748.674C191.783 749.09 191.432 749.437 190.964 749.714C190.505 749.983 189.968 750.117 189.352 750.117C188.72 750.117 188.148 749.961 187.636 749.649C187.125 749.337 186.722 748.899 186.427 748.336C186.133 747.773 185.985 747.131 185.985 746.412ZM192.017 746.425C192.017 745.888 191.909 745.42 191.692 745.021C191.476 744.622 191.181 744.319 190.808 744.111C190.444 743.894 190.041 743.786 189.599 743.786C189.157 743.786 188.754 743.89 188.39 744.098C188.026 744.306 187.736 744.609 187.519 745.008C187.303 745.407 187.194 745.875 187.194 746.412C187.194 746.958 187.303 747.435 187.519 747.842C187.736 748.241 188.026 748.548 188.39 748.765C188.754 748.973 189.157 749.077 189.599 749.077C190.041 749.077 190.444 748.973 190.808 748.765C191.181 748.548 191.476 748.241 191.692 747.842C191.909 747.435 192.017 746.962 192.017 746.425ZM194.77 746.425C194.77 745.688 194.918 745.047 195.212 744.501C195.507 743.946 195.914 743.517 196.434 743.214C196.963 742.911 197.565 742.759 198.241 742.759C199.117 742.759 199.836 742.971 200.399 743.396C200.971 743.821 201.348 744.41 201.53 745.164H200.256C200.135 744.731 199.897 744.388 199.541 744.137C199.195 743.886 198.761 743.76 198.241 743.76C197.565 743.76 197.019 743.994 196.603 744.462C196.187 744.921 195.979 745.576 195.979 746.425C195.979 747.283 196.187 747.946 196.603 748.414C197.019 748.882 197.565 749.116 198.241 749.116C198.761 749.116 199.195 748.995 199.541 748.752C199.888 748.509 200.126 748.163 200.256 747.712H201.53C201.34 748.44 200.958 749.025 200.386 749.467C199.814 749.9 199.099 750.117 198.241 750.117C197.565 750.117 196.963 749.965 196.434 749.662C195.914 749.359 195.507 748.93 195.212 748.375C194.918 747.82 194.77 747.17 194.77 746.425ZM202.667 746.425C202.667 745.688 202.814 745.047 203.109 744.501C203.404 743.946 203.811 743.517 204.331 743.214C204.86 742.911 205.462 742.759 206.138 742.759C207.013 742.759 207.733 742.971 208.296 743.396C208.868 743.821 209.245 744.41 209.427 745.164H208.153C208.032 744.731 207.793 744.388 207.438 744.137C207.091 743.886 206.658 743.76 206.138 743.76C205.462 743.76 204.916 743.994 204.5 744.462C204.084 744.921 203.876 745.576 203.876 746.425C203.876 747.283 204.084 747.946 204.5 748.414C204.916 748.882 205.462 749.116 206.138 749.116C206.658 749.116 207.091 748.995 207.438 748.752C207.785 748.509 208.023 748.163 208.153 747.712H209.427C209.236 748.44 208.855 749.025 208.283 749.467C207.711 749.9 206.996 750.117 206.138 750.117C205.462 750.117 204.86 749.965 204.331 749.662C203.811 749.359 203.404 748.93 203.109 748.375C202.814 747.82 202.667 747.17 202.667 746.425ZM214.112 750.117C213.445 750.117 212.838 749.965 212.292 749.662C211.755 749.359 211.33 748.93 211.018 748.375C210.715 747.812 210.563 747.162 210.563 746.425C210.563 745.697 210.719 745.056 211.031 744.501C211.352 743.938 211.785 743.509 212.331 743.214C212.877 742.911 213.488 742.759 214.164 742.759C214.84 742.759 215.451 742.911 215.997 743.214C216.543 743.509 216.972 743.933 217.284 744.488C217.605 745.043 217.765 745.688 217.765 746.425C217.765 747.162 217.601 747.812 217.271 748.375C216.951 748.93 216.513 749.359 215.958 749.662C215.404 749.965 214.788 750.117 214.112 750.117ZM214.112 749.077C214.537 749.077 214.936 748.977 215.308 748.778C215.681 748.579 215.98 748.28 216.205 747.881C216.439 747.482 216.556 746.997 216.556 746.425C216.556 745.853 216.444 745.368 216.218 744.969C215.993 744.57 215.698 744.276 215.334 744.085C214.97 743.886 214.576 743.786 214.151 743.786C213.718 743.786 213.319 743.886 212.955 744.085C212.6 744.276 212.314 744.57 212.097 744.969C211.881 745.368 211.772 745.853 211.772 746.425C211.772 747.006 211.876 747.495 212.084 747.894C212.301 748.293 212.587 748.592 212.942 748.791C213.298 748.982 213.688 749.077 214.112 749.077ZM225.639 742.876V750H224.456V748.947C224.23 749.311 223.914 749.597 223.507 749.805C223.108 750.004 222.666 750.104 222.181 750.104C221.626 750.104 221.128 749.991 220.686 749.766C220.244 749.532 219.893 749.185 219.633 748.726C219.381 748.267 219.256 747.708 219.256 747.049V742.876H220.426V746.893C220.426 747.595 220.603 748.137 220.959 748.518C221.314 748.891 221.799 749.077 222.415 749.077C223.047 749.077 223.546 748.882 223.91 748.492C224.274 748.102 224.456 747.534 224.456 746.789V742.876H225.639ZM231.107 742.746C231.974 742.746 232.676 743.01 233.213 743.539C233.751 744.059 234.019 744.813 234.019 745.801V750H232.849V745.97C232.849 745.259 232.672 744.718 232.316 744.345C231.961 743.964 231.476 743.773 230.86 743.773C230.236 743.773 229.738 743.968 229.365 744.358C229.001 744.748 228.819 745.316 228.819 746.061V750H227.636V742.876H228.819V743.89C229.053 743.526 229.37 743.244 229.768 743.045C230.176 742.846 230.622 742.746 231.107 742.746ZM237.395 743.851V748.05C237.395 748.397 237.468 748.644 237.616 748.791C237.763 748.93 238.019 748.999 238.383 748.999H239.254V750H238.188C237.529 750 237.035 749.848 236.706 749.545C236.376 749.242 236.212 748.743 236.212 748.05V743.851H235.289V742.876H236.212V741.082H237.395V742.876H239.254V743.851H237.395ZM243.001 740.822C243.859 740.822 244.552 741.065 245.081 741.55C245.61 742.035 245.874 742.685 245.874 743.5C245.874 744.41 245.592 745.086 245.029 745.528C244.466 745.961 243.703 746.178 242.741 746.178L242.702 747.413H241.675L241.623 745.359H242C242.858 745.359 243.53 745.229 244.015 744.969C244.5 744.709 244.743 744.219 244.743 743.5C244.743 742.98 244.587 742.568 244.275 742.265C243.963 741.962 243.543 741.81 243.014 741.81C242.477 741.81 242.052 741.957 241.74 742.252C241.437 742.538 241.285 742.932 241.285 743.435H240.167C240.167 742.915 240.284 742.46 240.518 742.07C240.752 741.671 241.081 741.364 241.506 741.147C241.939 740.93 242.438 740.822 243.001 740.822ZM242.182 750.078C241.957 750.078 241.766 750 241.61 749.844C241.454 749.688 241.376 749.497 241.376 749.272C241.376 749.047 241.454 748.856 241.61 748.7C241.766 748.544 241.957 748.466 242.182 748.466C242.399 748.466 242.581 748.544 242.728 748.7C242.884 748.856 242.962 749.047 242.962 749.272C242.962 749.497 242.884 749.688 242.728 749.844C242.581 750 242.399 750.078 242.182 750.078Z" fill="black" fill-opacity="0.61"/>
<path d="M253.843 750.091C253.245 750.091 252.708 749.987 252.231 749.779C251.763 749.562 251.395 749.268 251.126 748.895C250.858 748.514 250.719 748.076 250.71 747.582H251.971C252.015 748.007 252.188 748.366 252.491 748.661C252.803 748.947 253.254 749.09 253.843 749.09C254.407 749.09 254.849 748.951 255.169 748.674C255.499 748.388 255.663 748.024 255.663 747.582C255.663 747.235 255.568 746.954 255.377 746.737C255.187 746.52 254.948 746.356 254.662 746.243C254.376 746.13 253.991 746.009 253.505 745.879C252.907 745.723 252.426 745.567 252.062 745.411C251.707 745.255 251.399 745.012 251.139 744.683C250.888 744.345 250.762 743.894 250.762 743.331C250.762 742.837 250.888 742.399 251.139 742.018C251.391 741.637 251.742 741.342 252.192 741.134C252.652 740.926 253.176 740.822 253.765 740.822C254.615 740.822 255.308 741.034 255.845 741.459C256.391 741.884 256.699 742.447 256.768 743.149H255.468C255.425 742.802 255.243 742.499 254.922 742.239C254.602 741.97 254.177 741.836 253.648 741.836C253.154 741.836 252.751 741.966 252.439 742.226C252.127 742.477 251.971 742.833 251.971 743.292C251.971 743.621 252.062 743.89 252.244 744.098C252.435 744.306 252.665 744.466 252.933 744.579C253.211 744.683 253.596 744.804 254.09 744.943C254.688 745.108 255.169 745.272 255.533 745.437C255.897 745.593 256.209 745.84 256.469 746.178C256.729 746.507 256.859 746.958 256.859 747.53C256.859 747.972 256.742 748.388 256.508 748.778C256.274 749.168 255.928 749.484 255.468 749.727C255.009 749.97 254.467 750.091 253.843 750.091ZM259.211 741.719C258.986 741.719 258.795 741.641 258.639 741.485C258.483 741.329 258.405 741.138 258.405 740.913C258.405 740.688 258.483 740.497 258.639 740.341C258.795 740.185 258.986 740.107 259.211 740.107C259.428 740.107 259.61 740.185 259.757 740.341C259.913 740.497 259.991 740.688 259.991 740.913C259.991 741.138 259.913 741.329 259.757 741.485C259.61 741.641 259.428 741.719 259.211 741.719ZM259.783 742.876V750H258.6V742.876H259.783ZM264.737 742.759C265.353 742.759 265.89 742.893 266.349 743.162C266.817 743.431 267.164 743.769 267.389 744.176V742.876H268.585V750.156C268.585 750.806 268.447 751.382 268.169 751.885C267.892 752.396 267.493 752.795 266.973 753.081C266.462 753.367 265.864 753.51 265.179 753.51C264.243 753.51 263.463 753.289 262.839 752.847C262.215 752.405 261.847 751.803 261.734 751.04H262.904C263.034 751.473 263.303 751.82 263.71 752.08C264.118 752.349 264.607 752.483 265.179 752.483C265.829 752.483 266.358 752.279 266.765 751.872C267.181 751.465 267.389 750.893 267.389 750.156V748.661C267.155 749.077 266.809 749.424 266.349 749.701C265.89 749.978 265.353 750.117 264.737 750.117C264.105 750.117 263.528 749.961 263.008 749.649C262.497 749.337 262.094 748.899 261.799 748.336C261.505 747.773 261.357 747.131 261.357 746.412C261.357 745.684 261.505 745.047 261.799 744.501C262.094 743.946 262.497 743.517 263.008 743.214C263.528 742.911 264.105 742.759 264.737 742.759ZM267.389 746.425C267.389 745.888 267.281 745.42 267.064 745.021C266.848 744.622 266.553 744.319 266.18 744.111C265.816 743.894 265.413 743.786 264.971 743.786C264.529 743.786 264.126 743.89 263.762 744.098C263.398 744.306 263.108 744.609 262.891 745.008C262.675 745.407 262.566 745.875 262.566 746.412C262.566 746.958 262.675 747.435 262.891 747.842C263.108 748.241 263.398 748.548 263.762 748.765C264.126 748.973 264.529 749.077 264.971 749.077C265.413 749.077 265.816 748.973 266.18 748.765C266.553 748.548 266.848 748.241 267.064 747.842C267.281 747.435 267.389 746.962 267.389 746.425ZM274.055 742.746C274.922 742.746 275.624 743.01 276.161 743.539C276.699 744.059 276.967 744.813 276.967 745.801V750H275.797V745.97C275.797 745.259 275.62 744.718 275.264 744.345C274.909 743.964 274.424 743.773 273.808 743.773C273.184 743.773 272.686 743.968 272.313 744.358C271.949 744.748 271.767 745.316 271.767 746.061V750H270.584V742.876H271.767V743.89C272.001 743.526 272.318 743.244 272.716 743.045C273.124 742.846 273.57 742.746 274.055 742.746ZM283.523 740.939V746.672C283.523 747.478 283.718 748.076 284.108 748.466C284.506 748.856 285.057 749.051 285.759 749.051C286.452 749.051 286.994 748.856 287.384 748.466C287.782 748.076 287.982 747.478 287.982 746.672V740.939H289.165V746.659C289.165 747.413 289.013 748.05 288.71 748.57C288.406 749.081 287.995 749.463 287.475 749.714C286.963 749.965 286.387 750.091 285.746 750.091C285.104 750.091 284.524 749.965 284.004 749.714C283.492 749.463 283.085 749.081 282.782 748.57C282.487 748.05 282.34 747.413 282.34 746.659V740.939H283.523ZM292.321 744.189C292.555 743.782 292.902 743.444 293.361 743.175C293.829 742.898 294.371 742.759 294.986 742.759C295.619 742.759 296.191 742.911 296.702 743.214C297.222 743.517 297.63 743.946 297.924 744.501C298.219 745.047 298.366 745.684 298.366 746.412C298.366 747.131 298.219 747.773 297.924 748.336C297.63 748.899 297.222 749.337 296.702 749.649C296.191 749.961 295.619 750.117 294.986 750.117C294.38 750.117 293.842 749.983 293.374 749.714C292.915 749.437 292.564 749.094 292.321 748.687V753.38H291.138V742.876H292.321V744.189ZM297.157 746.412C297.157 745.875 297.049 745.407 296.832 745.008C296.616 744.609 296.321 744.306 295.948 744.098C295.584 743.89 295.181 743.786 294.739 743.786C294.306 743.786 293.903 743.894 293.53 744.111C293.166 744.319 292.872 744.627 292.646 745.034C292.43 745.433 292.321 745.896 292.321 746.425C292.321 746.962 292.43 747.435 292.646 747.842C292.872 748.241 293.166 748.548 293.53 748.765C293.903 748.973 294.306 749.077 294.739 749.077C295.181 749.077 295.584 748.973 295.948 748.765C296.321 748.548 296.616 748.241 296.832 747.842C297.049 747.435 297.157 746.958 297.157 746.412Z" fill="#0B6F8E" fill-opacity="0.82"/>
<path d="M137.596 581.545V582.655H133.051V586.18H136.741V587.29H133.051V592H131.686V581.545H137.596ZM142.829 592.135C142.059 592.135 141.359 591.96 140.729 591.61C140.109 591.26 139.619 590.765 139.259 590.125C138.909 589.475 138.734 588.725 138.734 587.875C138.734 587.035 138.914 586.295 139.274 585.655C139.644 585.005 140.144 584.51 140.774 584.17C141.404 583.82 142.109 583.645 142.889 583.645C143.669 583.645 144.374 583.82 145.004 584.17C145.634 584.51 146.129 585 146.489 585.64C146.859 586.28 147.044 587.025 147.044 587.875C147.044 588.725 146.854 589.475 146.474 590.125C146.104 590.765 145.599 591.26 144.959 591.61C144.319 591.96 143.609 592.135 142.829 592.135ZM142.829 590.935C143.319 590.935 143.779 590.82 144.209 590.59C144.639 590.36 144.984 590.015 145.244 589.555C145.514 589.095 145.649 588.535 145.649 587.875C145.649 587.215 145.519 586.655 145.259 586.195C144.999 585.735 144.659 585.395 144.239 585.175C143.819 584.945 143.364 584.83 142.874 584.83C142.374 584.83 141.914 584.945 141.494 585.175C141.084 585.395 140.754 585.735 140.504 586.195C140.254 586.655 140.129 587.215 140.129 587.875C140.129 588.545 140.249 589.11 140.489 589.57C140.739 590.03 141.069 590.375 141.479 590.605C141.889 590.825 142.339 590.935 142.829 590.935ZM150.204 585.115C150.444 584.645 150.784 584.28 151.224 584.02C151.674 583.76 152.219 583.63 152.859 583.63V585.04H152.499C150.969 585.04 150.204 585.87 150.204 587.53V592H148.839V583.78H150.204V585.115ZM157.825 583.645C158.535 583.645 159.155 583.8 159.685 584.11C160.225 584.42 160.625 584.81 160.885 585.28V583.78H162.265V592.18C162.265 592.93 162.105 593.595 161.785 594.175C161.465 594.765 161.005 595.225 160.405 595.555C159.815 595.885 159.125 596.05 158.335 596.05C157.255 596.05 156.355 595.795 155.635 595.285C154.915 594.775 154.49 594.08 154.36 593.2H155.71C155.86 593.7 156.17 594.1 156.64 594.4C157.11 594.71 157.675 594.865 158.335 594.865C159.085 594.865 159.695 594.63 160.165 594.16C160.645 593.69 160.885 593.03 160.885 592.18V590.455C160.615 590.935 160.215 591.335 159.685 591.655C159.155 591.975 158.535 592.135 157.825 592.135C157.095 592.135 156.43 591.955 155.83 591.595C155.24 591.235 154.775 590.73 154.435 590.08C154.095 589.43 153.925 588.69 153.925 587.86C153.925 587.02 154.095 586.285 154.435 585.655C154.775 585.015 155.24 584.52 155.83 584.17C156.43 583.82 157.095 583.645 157.825 583.645ZM160.885 587.875C160.885 587.255 160.76 586.715 160.51 586.255C160.26 585.795 159.92 585.445 159.49 585.205C159.07 584.955 158.605 584.83 158.095 584.83C157.585 584.83 157.12 584.95 156.7 585.19C156.28 585.43 155.945 585.78 155.695 586.24C155.445 586.7 155.32 587.24 155.32 587.86C155.32 588.49 155.445 589.04 155.695 589.51C155.945 589.97 156.28 590.325 156.7 590.575C157.12 590.815 157.585 590.935 158.095 590.935C158.605 590.935 159.07 590.815 159.49 590.575C159.92 590.325 160.26 589.97 160.51 589.51C160.76 589.04 160.885 588.495 160.885 587.875ZM168.157 592.135C167.387 592.135 166.687 591.96 166.057 591.61C165.437 591.26 164.947 590.765 164.587 590.125C164.237 589.475 164.062 588.725 164.062 587.875C164.062 587.035 164.242 586.295 164.602 585.655C164.972 585.005 165.472 584.51 166.102 584.17C166.732 583.82 167.437 583.645 168.217 583.645C168.997 583.645 169.702 583.82 170.332 584.17C170.962 584.51 171.457 585 171.817 585.64C172.187 586.28 172.372 587.025 172.372 587.875C172.372 588.725 172.182 589.475 171.802 590.125C171.432 590.765 170.927 591.26 170.287 591.61C169.647 591.96 168.937 592.135 168.157 592.135ZM168.157 590.935C168.647 590.935 169.107 590.82 169.537 590.59C169.967 590.36 170.312 590.015 170.572 589.555C170.842 589.095 170.977 588.535 170.977 587.875C170.977 587.215 170.847 586.655 170.587 586.195C170.327 585.735 169.987 585.395 169.567 585.175C169.147 584.945 168.692 584.83 168.202 584.83C167.702 584.83 167.242 584.945 166.822 585.175C166.412 585.395 166.082 585.735 165.832 586.195C165.582 586.655 165.457 587.215 165.457 587.875C165.457 588.545 165.577 589.11 165.817 589.57C166.067 590.03 166.397 590.375 166.807 590.605C167.217 590.825 167.667 590.935 168.157 590.935ZM175.831 584.905V589.75C175.831 590.15 175.916 590.435 176.086 590.605C176.256 590.765 176.551 590.845 176.971 590.845H177.976V592H176.746C175.986 592 175.416 591.825 175.036 591.475C174.656 591.125 174.466 590.55 174.466 589.75V584.905H173.401V583.78H174.466V581.71H175.831V583.78H177.976V584.905H175.831ZM190.619 584.605C190.619 585.475 190.319 586.2 189.719 586.78C189.129 587.35 188.224 587.635 187.004 587.635H184.994V592H183.629V581.545H187.004C188.184 581.545 189.079 581.83 189.689 582.4C190.309 582.97 190.619 583.705 190.619 584.605ZM187.004 586.51C187.764 586.51 188.324 586.345 188.684 586.015C189.044 585.685 189.224 585.215 189.224 584.605C189.224 583.315 188.484 582.67 187.004 582.67H184.994V586.51H187.004ZM191.806 587.86C191.806 587.02 191.976 586.285 192.316 585.655C192.656 585.015 193.121 584.52 193.711 584.17C194.311 583.82 194.976 583.645 195.706 583.645C196.426 583.645 197.051 583.8 197.581 584.11C198.111 584.42 198.506 584.81 198.766 585.28V583.78H200.146V592H198.766V590.47C198.496 590.95 198.091 591.35 197.551 591.67C197.021 591.98 196.401 592.135 195.691 592.135C194.961 592.135 194.301 591.955 193.711 591.595C193.121 591.235 192.656 590.73 192.316 590.08C191.976 589.43 191.806 588.69 191.806 587.86ZM198.766 587.875C198.766 587.255 198.641 586.715 198.391 586.255C198.141 585.795 197.801 585.445 197.371 585.205C196.951 584.955 196.486 584.83 195.976 584.83C195.466 584.83 195.001 584.95 194.581 585.19C194.161 585.43 193.826 585.78 193.576 586.24C193.326 586.7 193.201 587.24 193.201 587.86C193.201 588.49 193.326 589.04 193.576 589.51C193.826 589.97 194.161 590.325 194.581 590.575C195.001 590.815 195.466 590.935 195.976 590.935C196.486 590.935 196.951 590.815 197.371 590.575C197.801 590.325 198.141 589.97 198.391 589.51C198.641 589.04 198.766 588.495 198.766 587.875ZM205.362 592.135C204.732 592.135 204.167 592.03 203.667 591.82C203.167 591.6 202.772 591.3 202.482 590.92C202.192 590.53 202.032 590.085 202.002 589.585H203.412C203.452 589.995 203.642 590.33 203.982 590.59C204.332 590.85 204.787 590.98 205.347 590.98C205.867 590.98 206.277 590.865 206.577 590.635C206.877 590.405 207.027 590.115 207.027 589.765C207.027 589.405 206.867 589.14 206.547 588.97C206.227 588.79 205.732 588.615 205.062 588.445C204.452 588.285 203.952 588.125 203.562 587.965C203.182 587.795 202.852 587.55 202.572 587.23C202.302 586.9 202.167 586.47 202.167 585.94C202.167 585.52 202.292 585.135 202.542 584.785C202.792 584.435 203.147 584.16 203.607 583.96C204.067 583.75 204.592 583.645 205.182 583.645C206.092 583.645 206.827 583.875 207.387 584.335C207.947 584.795 208.247 585.425 208.287 586.225H206.922C206.892 585.795 206.717 585.45 206.397 585.19C206.087 584.93 205.667 584.8 205.137 584.8C204.647 584.8 204.257 584.905 203.967 585.115C203.677 585.325 203.532 585.6 203.532 585.94C203.532 586.21 203.617 586.435 203.787 586.615C203.967 586.785 204.187 586.925 204.447 587.035C204.717 587.135 205.087 587.25 205.557 587.38C206.147 587.54 206.627 587.7 206.997 587.86C207.367 588.01 207.682 588.24 207.942 588.55C208.212 588.86 208.352 589.265 208.362 589.765C208.362 590.215 208.237 590.62 207.987 590.98C207.737 591.34 207.382 591.625 206.922 591.835C206.472 592.035 205.952 592.135 205.362 592.135ZM213.199 592.135C212.569 592.135 212.004 592.03 211.504 591.82C211.004 591.6 210.609 591.3 210.319 590.92C210.029 590.53 209.869 590.085 209.839 589.585H211.249C211.289 589.995 211.479 590.33 211.819 590.59C212.169 590.85 212.624 590.98 213.184 590.98C213.704 590.98 214.114 590.865 214.414 590.635C214.714 590.405 214.864 590.115 214.864 589.765C214.864 589.405 214.704 589.14 214.384 588.97C214.064 588.79 213.569 588.615 212.899 588.445C212.289 588.285 211.789 588.125 211.399 587.965C211.019 587.795 210.689 587.55 210.409 587.23C210.139 586.9 210.004 586.47 210.004 585.94C210.004 585.52 210.129 585.135 210.379 584.785C210.629 584.435 210.984 584.16 211.444 583.96C211.904 583.75 212.429 583.645 213.019 583.645C213.929 583.645 214.664 583.875 215.224 584.335C215.784 584.795 216.084 585.425 216.124 586.225H214.759C214.729 585.795 214.554 585.45 214.234 585.19C213.924 584.93 213.504 584.8 212.974 584.8C212.484 584.8 212.094 584.905 211.804 585.115C211.514 585.325 211.369 585.6 211.369 585.94C211.369 586.21 211.454 586.435 211.624 586.615C211.804 586.785 212.024 586.925 212.284 587.035C212.554 587.135 212.924 587.25 213.394 587.38C213.984 587.54 214.464 587.7 214.834 587.86C215.204 588.01 215.519 588.24 215.779 588.55C216.049 588.86 216.189 589.265 216.199 589.765C216.199 590.215 216.074 590.62 215.824 590.98C215.574 591.34 215.219 591.625 214.759 591.835C214.309 592.035 213.789 592.135 213.199 592.135ZM229.076 583.78L226.511 592H225.101L223.121 585.475L221.141 592H219.731L217.151 583.78H218.546L220.436 590.68L222.476 583.78H223.871L225.866 590.695L227.726 583.78H229.076ZM234.016 592.135C233.246 592.135 232.546 591.96 231.916 591.61C231.296 591.26 230.806 590.765 230.446 590.125C230.096 589.475 229.921 588.725 229.921 587.875C229.921 587.035 230.101 586.295 230.461 585.655C230.831 585.005 231.331 584.51 231.961 584.17C232.591 583.82 233.296 583.645 234.076 583.645C234.856 583.645 235.561 583.82 236.191 584.17C236.821 584.51 237.316 585 237.676 585.64C238.046 586.28 238.231 587.025 238.231 587.875C238.231 588.725 238.041 589.475 237.661 590.125C237.291 590.765 236.786 591.26 236.146 591.61C235.506 591.96 234.796 592.135 234.016 592.135ZM234.016 590.935C234.506 590.935 234.966 590.82 235.396 590.59C235.826 590.36 236.171 590.015 236.431 589.555C236.701 589.095 236.836 588.535 236.836 587.875C236.836 587.215 236.706 586.655 236.446 586.195C236.186 585.735 235.846 585.395 235.426 585.175C235.006 584.945 234.551 584.83 234.061 584.83C233.561 584.83 233.101 584.945 232.681 585.175C232.271 585.395 231.941 585.735 231.691 586.195C231.441 586.655 231.316 587.215 231.316 587.875C231.316 588.545 231.436 589.11 231.676 589.57C231.926 590.03 232.256 590.375 232.666 590.605C233.076 590.825 233.526 590.935 234.016 590.935ZM241.391 585.115C241.631 584.645 241.971 584.28 242.411 584.02C242.861 583.76 243.406 583.63 244.046 583.63V585.04H243.686C242.156 585.04 241.391 585.87 241.391 587.53V592H240.026V583.78H241.391V585.115ZM245.111 587.86C245.111 587.02 245.281 586.285 245.621 585.655C245.961 585.015 246.426 584.52 247.016 584.17C247.616 583.82 248.286 583.645 249.026 583.645C249.666 583.645 250.261 583.795 250.811 584.095C251.361 584.385 251.781 584.77 252.071 585.25V580.9H253.451V592H252.071V590.455C251.801 590.945 251.401 591.35 250.871 591.67C250.341 591.98 249.721 592.135 249.011 592.135C248.281 592.135 247.616 591.955 247.016 591.595C246.426 591.235 245.961 590.73 245.621 590.08C245.281 589.43 245.111 588.69 245.111 587.86ZM252.071 587.875C252.071 587.255 251.946 586.715 251.696 586.255C251.446 585.795 251.106 585.445 250.676 585.205C250.256 584.955 249.791 584.83 249.281 584.83C248.771 584.83 248.306 584.95 247.886 585.19C247.466 585.43 247.131 585.78 246.881 586.24C246.631 586.7 246.506 587.24 246.506 587.86C246.506 588.49 246.631 589.04 246.881 589.51C247.131 589.97 247.466 590.325 247.886 590.575C248.306 590.815 248.771 590.935 249.281 590.935C249.791 590.935 250.256 590.815 250.676 590.575C251.106 590.325 251.446 589.97 251.696 589.51C251.946 589.04 252.071 588.495 252.071 587.875ZM258.428 581.41C259.418 581.41 260.218 581.69 260.828 582.25C261.438 582.81 261.743 583.56 261.743 584.5C261.743 585.55 261.418 586.33 260.768 586.84C260.118 587.34 259.238 587.59 258.128 587.59L258.083 589.015H256.898L256.838 586.645H257.273C258.263 586.645 259.038 586.495 259.598 586.195C260.158 585.895 260.438 585.33 260.438 584.5C260.438 583.9 260.258 583.425 259.898 583.075C259.538 582.725 259.053 582.55 258.443 582.55C257.823 582.55 257.333 582.72 256.973 583.06C256.623 583.39 256.448 583.845 256.448 584.425H255.158C255.158 583.825 255.293 583.3 255.563 582.85C255.833 582.39 256.213 582.035 256.703 581.785C257.203 581.535 257.778 581.41 258.428 581.41ZM257.483 592.09C257.223 592.09 257.003 592 256.823 591.82C256.643 591.64 256.553 591.42 256.553 591.16C256.553 590.9 256.643 590.68 256.823 590.5C257.003 590.32 257.223 590.23 257.483 590.23C257.733 590.23 257.943 590.32 258.113 590.5C258.293 590.68 258.383 590.9 258.383 591.16C258.383 591.42 258.293 591.64 258.113 591.82C257.943 592 257.733 592.09 257.483 592.09Z" fill="#0B6F8E"/>
<rect x="26" y="434" width="340" height="50" rx="25" fill="#D9D9D9"/>
<path d="M44.184 455.901V458.93H47.486V459.905H44.184V463.025H47.876V464H43.001V454.926H47.876V455.901H44.184ZM53.137 456.746C54.0037 456.746 54.7057 457.01 55.243 457.539C55.7804 458.059 56.049 458.813 56.049 459.801V464H54.879V459.97C54.879 459.259 54.7014 458.718 54.346 458.345C53.9907 457.964 53.5054 457.773 52.89 457.773C52.266 457.773 51.7677 457.968 51.395 458.358C51.031 458.748 50.849 459.316 50.849 460.061V464H49.666V456.876H50.849V457.89C51.083 457.526 51.3994 457.244 51.798 457.045C52.2054 456.846 52.6517 456.746 53.137 456.746ZM59.4245 457.851V462.05C59.4245 462.397 59.4981 462.644 59.6455 462.791C59.7928 462.93 60.0485 462.999 60.4125 462.999H61.2835V464H60.2175C59.5588 464 59.0648 463.848 58.7355 463.545C58.4061 463.242 58.2415 462.743 58.2415 462.05V457.851H57.3185V456.876H58.2415V455.082H59.4245V456.876H61.2835V457.851H59.4245ZM69.2168 460.165C69.2168 460.39 69.2038 460.629 69.1778 460.88H63.4838C63.5272 461.582 63.7655 462.132 64.1988 462.531C64.6408 462.921 65.1738 463.116 65.7978 463.116C66.3092 463.116 66.7338 462.999 67.0718 462.765C67.4185 462.522 67.6612 462.202 67.7998 461.803H69.0738C68.8832 462.488 68.5018 463.047 67.9298 463.48C67.3578 463.905 66.6472 464.117 65.7978 464.117C65.1218 464.117 64.5152 463.965 63.9778 463.662C63.4492 463.359 63.0332 462.93 62.7298 462.375C62.4265 461.812 62.2748 461.162 62.2748 460.425C62.2748 459.688 62.4222 459.043 62.7168 458.488C63.0115 457.933 63.4232 457.509 63.9518 457.214C64.4892 456.911 65.1045 456.759 65.7978 456.759C66.4738 456.759 67.0718 456.906 67.5918 457.201C68.1118 457.496 68.5105 457.903 68.7878 458.423C69.0738 458.934 69.2168 459.515 69.2168 460.165ZM67.9948 459.918C67.9948 459.467 67.8952 459.082 67.6958 458.761C67.4965 458.432 67.2235 458.185 66.8768 458.02C66.5388 457.847 66.1618 457.76 65.7458 457.76C65.1478 457.76 64.6365 457.951 64.2118 458.332C63.7958 458.713 63.5575 459.242 63.4968 459.918H67.9948ZM71.9613 458.033C72.1693 457.626 72.464 457.309 72.8453 457.084C73.2353 456.859 73.7077 456.746 74.2623 456.746V457.968H73.9503C72.6243 457.968 71.9613 458.687 71.9613 460.126V464H70.7783V456.876H71.9613V458.033ZM85.2298 456.876L80.9398 467.354H79.7178L81.1218 463.922L78.2488 456.876H79.5618L81.7978 462.648L84.0078 456.876H85.2298ZM89.526 464.117C88.8586 464.117 88.252 463.965 87.706 463.662C87.1686 463.359 86.744 462.93 86.432 462.375C86.1286 461.812 85.977 461.162 85.977 460.425C85.977 459.697 86.133 459.056 86.445 458.501C86.7656 457.938 87.199 457.509 87.745 457.214C88.291 456.911 88.902 456.759 89.578 456.759C90.254 456.759 90.865 456.911 91.411 457.214C91.957 457.509 92.386 457.933 92.698 458.488C93.0186 459.043 93.179 459.688 93.179 460.425C93.179 461.162 93.0143 461.812 92.685 462.375C92.3643 462.93 91.9266 463.359 91.372 463.662C90.8173 463.965 90.202 464.117 89.526 464.117ZM89.526 463.077C89.9506 463.077 90.3493 462.977 90.722 462.778C91.0946 462.579 91.3936 462.28 91.619 461.881C91.853 461.482 91.97 460.997 91.97 460.425C91.97 459.853 91.8573 459.368 91.632 458.969C91.4066 458.57 91.112 458.276 90.748 458.085C90.384 457.886 89.9896 457.786 89.565 457.786C89.1316 457.786 88.733 457.886 88.369 458.085C88.0136 458.276 87.7276 458.57 87.511 458.969C87.2943 459.368 87.186 459.853 87.186 460.425C87.186 461.006 87.29 461.495 87.498 461.894C87.7146 462.293 88.0006 462.592 88.356 462.791C88.7113 462.982 89.1013 463.077 89.526 463.077ZM101.052 456.876V464H99.8694V462.947C99.6441 463.311 99.3277 463.597 98.9204 463.805C98.5217 464.004 98.0797 464.104 97.5944 464.104C97.0397 464.104 96.5414 463.991 96.0994 463.766C95.6574 463.532 95.3064 463.185 95.0464 462.726C94.7951 462.267 94.6694 461.708 94.6694 461.049V456.876H95.8394V460.893C95.8394 461.595 96.0171 462.137 96.3724 462.518C96.7277 462.891 97.2131 463.077 97.8284 463.077C98.4611 463.077 98.9594 462.882 99.3234 462.492C99.6874 462.102 99.8694 461.534 99.8694 460.789V456.876H101.052ZM104.233 458.033C104.441 457.626 104.735 457.309 105.117 457.084C105.507 456.859 105.979 456.746 106.534 456.746V457.968H106.222C104.896 457.968 104.233 458.687 104.233 460.126V464H103.05V456.876H104.233V458.033ZM112.548 455.901V458.93H115.85V459.905H112.548V463.025H116.24V464H111.365V454.926H116.24V455.901H112.548ZM126.597 456.746C127.152 456.746 127.646 456.863 128.079 457.097C128.513 457.322 128.855 457.665 129.106 458.124C129.358 458.583 129.483 459.142 129.483 459.801V464H128.313V459.97C128.313 459.259 128.136 458.718 127.78 458.345C127.434 457.964 126.961 457.773 126.363 457.773C125.748 457.773 125.258 457.972 124.894 458.371C124.53 458.761 124.348 459.329 124.348 460.074V464H123.178V459.97C123.178 459.259 123.001 458.718 122.645 458.345C122.299 457.964 121.826 457.773 121.228 457.773C120.613 457.773 120.123 457.972 119.759 458.371C119.395 458.761 119.213 459.329 119.213 460.074V464H118.03V456.876H119.213V457.903C119.447 457.53 119.759 457.244 120.149 457.045C120.548 456.846 120.986 456.746 121.462 456.746C122.06 456.746 122.589 456.88 123.048 457.149C123.508 457.418 123.85 457.812 124.075 458.332C124.275 457.829 124.604 457.439 125.063 457.162C125.523 456.885 126.034 456.746 126.597 456.746ZM130.982 460.412C130.982 459.684 131.129 459.047 131.424 458.501C131.719 457.946 132.122 457.517 132.633 457.214C133.153 456.911 133.729 456.759 134.362 456.759C134.986 456.759 135.528 456.893 135.987 457.162C136.446 457.431 136.789 457.769 137.014 458.176V456.876H138.21V464H137.014V462.674C136.78 463.09 136.429 463.437 135.961 463.714C135.502 463.983 134.964 464.117 134.349 464.117C133.716 464.117 133.144 463.961 132.633 463.649C132.122 463.337 131.719 462.899 131.424 462.336C131.129 461.773 130.982 461.131 130.982 460.412ZM137.014 460.425C137.014 459.888 136.906 459.42 136.689 459.021C136.472 458.622 136.178 458.319 135.805 458.111C135.441 457.894 135.038 457.786 134.596 457.786C134.154 457.786 133.751 457.89 133.387 458.098C133.023 458.306 132.733 458.609 132.516 459.008C132.299 459.407 132.191 459.875 132.191 460.412C132.191 460.958 132.299 461.435 132.516 461.842C132.733 462.241 133.023 462.548 133.387 462.765C133.751 462.973 134.154 463.077 134.596 463.077C135.038 463.077 135.441 462.973 135.805 462.765C136.178 462.548 136.472 462.241 136.689 461.842C136.906 461.435 137.014 460.962 137.014 460.425ZM140.82 455.719C140.595 455.719 140.404 455.641 140.248 455.485C140.092 455.329 140.014 455.138 140.014 454.913C140.014 454.688 140.092 454.497 140.248 454.341C140.404 454.185 140.595 454.107 140.82 454.107C141.037 454.107 141.219 454.185 141.366 454.341C141.522 454.497 141.6 454.688 141.6 454.913C141.6 455.138 141.522 455.329 141.366 455.485C141.219 455.641 141.037 455.719 140.82 455.719ZM141.392 456.876V464H140.209V456.876H141.392ZM144.591 454.38V464H143.408V454.38H144.591Z" fill="black" fill-opacity="0.61"/>
<rect x="26" y="508" width="340" height="50" rx="25" fill="#D9D9D9"/>
<path d="M44.184 529.901V532.93H47.486V533.905H44.184V537.025H47.876V538H43.001V528.926H47.876V529.901H44.184ZM53.137 530.746C54.0037 530.746 54.7057 531.01 55.243 531.539C55.7804 532.059 56.049 532.813 56.049 533.801V538H54.879V533.97C54.879 533.259 54.7014 532.718 54.346 532.345C53.9907 531.964 53.5054 531.773 52.89 531.773C52.266 531.773 51.7677 531.968 51.395 532.358C51.031 532.748 50.849 533.316 50.849 534.061V538H49.666V530.876H50.849V531.89C51.083 531.526 51.3994 531.244 51.798 531.045C52.2054 530.846 52.6517 530.746 53.137 530.746ZM59.4245 531.851V536.05C59.4245 536.397 59.4981 536.644 59.6455 536.791C59.7928 536.93 60.0485 536.999 60.4125 536.999H61.2835V538H60.2175C59.5588 538 59.0648 537.848 58.7355 537.545C58.4061 537.242 58.2415 536.743 58.2415 536.05V531.851H57.3185V530.876H58.2415V529.082H59.4245V530.876H61.2835V531.851H59.4245ZM69.2168 534.165C69.2168 534.39 69.2038 534.629 69.1778 534.88H63.4838C63.5272 535.582 63.7655 536.132 64.1988 536.531C64.6408 536.921 65.1738 537.116 65.7978 537.116C66.3092 537.116 66.7338 536.999 67.0718 536.765C67.4185 536.522 67.6612 536.202 67.7998 535.803H69.0738C68.8832 536.488 68.5018 537.047 67.9298 537.48C67.3578 537.905 66.6472 538.117 65.7978 538.117C65.1218 538.117 64.5152 537.965 63.9778 537.662C63.4492 537.359 63.0332 536.93 62.7298 536.375C62.4265 535.812 62.2748 535.162 62.2748 534.425C62.2748 533.688 62.4222 533.043 62.7168 532.488C63.0115 531.933 63.4232 531.509 63.9518 531.214C64.4892 530.911 65.1045 530.759 65.7978 530.759C66.4738 530.759 67.0718 530.906 67.5918 531.201C68.1118 531.496 68.5105 531.903 68.7878 532.423C69.0738 532.934 69.2168 533.515 69.2168 534.165ZM67.9948 533.918C67.9948 533.467 67.8952 533.082 67.6958 532.761C67.4965 532.432 67.2235 532.185 66.8768 532.02C66.5388 531.847 66.1618 531.76 65.7458 531.76C65.1478 531.76 64.6365 531.951 64.2118 532.332C63.7958 532.713 63.5575 533.242 63.4968 533.918H67.9948ZM71.9613 532.033C72.1693 531.626 72.464 531.309 72.8453 531.084C73.2353 530.859 73.7077 530.746 74.2623 530.746V531.968H73.9503C72.6243 531.968 71.9613 532.687 71.9613 534.126V538H70.7783V530.876H71.9613V532.033ZM85.2298 530.876L80.9398 541.354H79.7178L81.1218 537.922L78.2488 530.876H79.5618L81.7978 536.648L84.0078 530.876H85.2298ZM89.526 538.117C88.8586 538.117 88.252 537.965 87.706 537.662C87.1686 537.359 86.744 536.93 86.432 536.375C86.1286 535.812 85.977 535.162 85.977 534.425C85.977 533.697 86.133 533.056 86.445 532.501C86.7656 531.938 87.199 531.509 87.745 531.214C88.291 530.911 88.902 530.759 89.578 530.759C90.254 530.759 90.865 530.911 91.411 531.214C91.957 531.509 92.386 531.933 92.698 532.488C93.0186 533.043 93.179 533.688 93.179 534.425C93.179 535.162 93.0143 535.812 92.685 536.375C92.3643 536.93 91.9266 537.359 91.372 537.662C90.8173 537.965 90.202 538.117 89.526 538.117ZM89.526 537.077C89.9506 537.077 90.3493 536.977 90.722 536.778C91.0946 536.579 91.3936 536.28 91.619 535.881C91.853 535.482 91.97 534.997 91.97 534.425C91.97 533.853 91.8573 533.368 91.632 532.969C91.4066 532.57 91.112 532.276 90.748 532.085C90.384 531.886 89.9896 531.786 89.565 531.786C89.1316 531.786 88.733 531.886 88.369 532.085C88.0136 532.276 87.7276 532.57 87.511 532.969C87.2943 533.368 87.186 533.853 87.186 534.425C87.186 535.006 87.29 535.495 87.498 535.894C87.7146 536.293 88.0006 536.592 88.356 536.791C88.7113 536.982 89.1013 537.077 89.526 537.077ZM101.052 530.876V538H99.8694V536.947C99.6441 537.311 99.3277 537.597 98.9204 537.805C98.5217 538.004 98.0797 538.104 97.5944 538.104C97.0397 538.104 96.5414 537.991 96.0994 537.766C95.6574 537.532 95.3064 537.185 95.0464 536.726C94.7951 536.267 94.6694 535.708 94.6694 535.049V530.876H95.8394V534.893C95.8394 535.595 96.0171 536.137 96.3724 536.518C96.7277 536.891 97.2131 537.077 97.8284 537.077C98.4611 537.077 98.9594 536.882 99.3234 536.492C99.6874 536.102 99.8694 535.534 99.8694 534.789V530.876H101.052ZM104.233 532.033C104.441 531.626 104.735 531.309 105.117 531.084C105.507 530.859 105.979 530.746 106.534 530.746V531.968H106.222C104.896 531.968 104.233 532.687 104.233 534.126V538H103.05V530.876H104.233V532.033ZM117.423 531.591C117.423 532.345 117.163 532.973 116.643 533.476C116.132 533.97 115.348 534.217 114.29 534.217H112.548V538H111.365V528.939H114.29C115.313 528.939 116.089 529.186 116.617 529.68C117.155 530.174 117.423 530.811 117.423 531.591ZM114.29 533.242C114.949 533.242 115.434 533.099 115.746 532.813C116.058 532.527 116.214 532.12 116.214 531.591C116.214 530.473 115.573 529.914 114.29 529.914H112.548V533.242H114.29ZM118.452 534.412C118.452 533.684 118.599 533.047 118.894 532.501C119.188 531.946 119.591 531.517 120.103 531.214C120.623 530.911 121.199 530.759 121.832 530.759C122.456 530.759 122.997 530.893 123.457 531.162C123.916 531.431 124.258 531.769 124.484 532.176V530.876H125.68V538H124.484V536.674C124.25 537.09 123.899 537.437 123.431 537.714C122.971 537.983 122.434 538.117 121.819 538.117C121.186 538.117 120.614 537.961 120.103 537.649C119.591 537.337 119.188 536.899 118.894 536.336C118.599 535.773 118.452 535.131 118.452 534.412ZM124.484 534.425C124.484 533.888 124.375 533.42 124.159 533.021C123.942 532.622 123.647 532.319 123.275 532.111C122.911 531.894 122.508 531.786 122.066 531.786C121.624 531.786 121.221 531.89 120.857 532.098C120.493 532.306 120.202 532.609 119.986 533.008C119.769 533.407 119.661 533.875 119.661 534.412C119.661 534.958 119.769 535.435 119.986 535.842C120.202 536.241 120.493 536.548 120.857 536.765C121.221 536.973 121.624 537.077 122.066 537.077C122.508 537.077 122.911 536.973 123.275 536.765C123.647 536.548 123.942 536.241 124.159 535.842C124.375 535.435 124.484 534.962 124.484 534.425ZM130.201 538.117C129.655 538.117 129.165 538.026 128.732 537.844C128.298 537.653 127.956 537.393 127.705 537.064C127.453 536.726 127.315 536.34 127.289 535.907H128.511C128.545 536.262 128.71 536.553 129.005 536.778C129.308 537.003 129.702 537.116 130.188 537.116C130.638 537.116 130.994 537.016 131.254 536.817C131.514 536.618 131.644 536.366 131.644 536.063C131.644 535.751 131.505 535.521 131.228 535.374C130.95 535.218 130.521 535.066 129.941 534.919C129.412 534.78 128.979 534.642 128.641 534.503C128.311 534.356 128.025 534.143 127.783 533.866C127.549 533.58 127.432 533.207 127.432 532.748C127.432 532.384 127.54 532.05 127.757 531.747C127.973 531.444 128.281 531.205 128.68 531.032C129.078 530.85 129.533 530.759 130.045 530.759C130.833 530.759 131.47 530.958 131.956 531.357C132.441 531.756 132.701 532.302 132.736 532.995H131.553C131.527 532.622 131.375 532.323 131.098 532.098C130.829 531.873 130.465 531.76 130.006 531.76C129.581 531.76 129.243 531.851 128.992 532.033C128.74 532.215 128.615 532.453 128.615 532.748C128.615 532.982 128.688 533.177 128.836 533.333C128.992 533.48 129.182 533.602 129.408 533.697C129.642 533.784 129.962 533.883 130.37 533.996C130.881 534.135 131.297 534.273 131.618 534.412C131.938 534.542 132.211 534.741 132.437 535.01C132.671 535.279 132.792 535.63 132.801 536.063C132.801 536.453 132.692 536.804 132.476 537.116C132.259 537.428 131.951 537.675 131.553 537.857C131.163 538.03 130.712 538.117 130.201 538.117ZM136.993 538.117C136.447 538.117 135.957 538.026 135.524 537.844C135.09 537.653 134.748 537.393 134.497 537.064C134.245 536.726 134.107 536.34 134.081 535.907H135.303C135.337 536.262 135.502 536.553 135.797 536.778C136.1 537.003 136.494 537.116 136.98 537.116C137.43 537.116 137.786 537.016 138.046 536.817C138.306 536.618 138.436 536.366 138.436 536.063C138.436 535.751 138.297 535.521 138.02 535.374C137.742 535.218 137.313 535.066 136.733 534.919C136.204 534.78 135.771 534.642 135.433 534.503C135.103 534.356 134.817 534.143 134.575 533.866C134.341 533.58 134.224 533.207 134.224 532.748C134.224 532.384 134.332 532.05 134.549 531.747C134.765 531.444 135.073 531.205 135.472 531.032C135.87 530.85 136.325 530.759 136.837 530.759C137.625 530.759 138.262 530.958 138.748 531.357C139.233 531.756 139.493 532.302 139.528 532.995H138.345C138.319 532.622 138.167 532.323 137.89 532.098C137.621 531.873 137.257 531.76 136.798 531.76C136.373 531.76 136.035 531.851 135.784 532.033C135.532 532.215 135.407 532.453 135.407 532.748C135.407 532.982 135.48 533.177 135.628 533.333C135.784 533.48 135.974 533.602 136.2 533.697C136.434 533.784 136.754 533.883 137.162 533.996C137.673 534.135 138.089 534.273 138.41 534.412C138.73 534.542 139.003 534.741 139.229 535.01C139.463 535.279 139.584 535.63 139.593 536.063C139.593 536.453 139.484 536.804 139.268 537.116C139.051 537.428 138.743 537.675 138.345 537.857C137.955 538.03 137.504 538.117 136.993 538.117ZM150.753 530.876L148.53 538H147.308L145.592 532.345L143.876 538H142.654L140.418 530.876H141.627L143.265 536.856L145.033 530.876H146.242L147.971 536.869L149.583 530.876H150.753ZM155.034 538.117C154.366 538.117 153.76 537.965 153.214 537.662C152.676 537.359 152.252 536.93 151.94 536.375C151.636 535.812 151.485 535.162 151.485 534.425C151.485 533.697 151.641 533.056 151.953 532.501C152.273 531.938 152.707 531.509 153.253 531.214C153.799 530.911 154.41 530.759 155.086 530.759C155.762 530.759 156.373 530.911 156.919 531.214C157.465 531.509 157.894 531.933 158.206 532.488C158.526 533.043 158.687 533.688 158.687 534.425C158.687 535.162 158.522 535.812 158.193 536.375C157.872 536.93 157.434 537.359 156.88 537.662C156.325 537.965 155.71 538.117 155.034 538.117ZM155.034 537.077C155.458 537.077 155.857 536.977 156.23 536.778C156.602 536.579 156.901 536.28 157.127 535.881C157.361 535.482 157.478 534.997 157.478 534.425C157.478 533.853 157.365 533.368 157.14 532.969C156.914 532.57 156.62 532.276 156.256 532.085C155.892 531.886 155.497 531.786 155.073 531.786C154.639 531.786 154.241 531.886 153.877 532.085C153.521 532.276 153.235 532.57 153.019 532.969C152.802 533.368 152.694 533.853 152.694 534.425C152.694 535.006 152.798 535.495 153.006 535.894C153.222 536.293 153.508 536.592 153.864 536.791C154.219 536.982 154.609 537.077 155.034 537.077ZM161.425 532.033C161.633 531.626 161.928 531.309 162.309 531.084C162.699 530.859 163.172 530.746 163.726 530.746V531.968H163.414C162.088 531.968 161.425 532.687 161.425 534.126V538H160.242V530.876H161.425V532.033ZM164.65 534.412C164.65 533.684 164.797 533.047 165.092 532.501C165.386 531.946 165.789 531.517 166.301 531.214C166.821 530.911 167.401 530.759 168.043 530.759C168.597 530.759 169.113 530.889 169.59 531.149C170.066 531.4 170.43 531.734 170.682 532.15V528.38H171.878V538H170.682V536.661C170.448 537.086 170.101 537.437 169.642 537.714C169.182 537.983 168.645 538.117 168.03 538.117C167.397 538.117 166.821 537.961 166.301 537.649C165.789 537.337 165.386 536.899 165.092 536.336C164.797 535.773 164.65 535.131 164.65 534.412ZM170.682 534.425C170.682 533.888 170.573 533.42 170.357 533.021C170.14 532.622 169.845 532.319 169.473 532.111C169.109 531.894 168.706 531.786 168.264 531.786C167.822 531.786 167.419 531.89 167.055 532.098C166.691 532.306 166.4 532.609 166.184 533.008C165.967 533.407 165.859 533.875 165.859 534.412C165.859 534.958 165.967 535.435 166.184 535.842C166.4 536.241 166.691 536.548 167.055 536.765C167.419 536.973 167.822 537.077 168.264 537.077C168.706 537.077 169.109 536.973 169.473 536.765C169.845 536.548 170.14 536.241 170.357 535.842C170.573 535.435 170.682 534.962 170.682 534.425Z" fill="black" fill-opacity="0.61"/>
<rect x="26" y="653" width="340" height="70" rx="15" fill="#D9D9D9"/>
<path d="M170.321 691.78H174.921V694H167.521V680.04H170.321V691.78ZM181.621 694.18C180.554 694.18 179.594 693.947 178.741 693.48C177.887 693 177.214 692.327 176.721 691.46C176.241 690.593 176.001 689.593 176.001 688.46C176.001 687.327 176.247 686.327 176.741 685.46C177.247 684.593 177.934 683.927 178.801 683.46C179.667 682.98 180.634 682.74 181.701 682.74C182.767 682.74 183.734 682.98 184.601 683.46C185.467 683.927 186.147 684.593 186.641 685.46C187.147 686.327 187.401 687.327 187.401 688.46C187.401 689.593 187.141 690.593 186.621 691.46C186.114 692.327 185.421 693 184.541 693.48C183.674 693.947 182.701 694.18 181.621 694.18ZM181.621 691.74C182.127 691.74 182.601 691.62 183.041 691.38C183.494 691.127 183.854 690.753 184.121 690.26C184.387 689.767 184.521 689.167 184.521 688.46C184.521 687.407 184.241 686.6 183.681 686.04C183.134 685.467 182.461 685.18 181.661 685.18C180.861 685.18 180.187 685.467 179.641 686.04C179.107 686.6 178.841 687.407 178.841 688.46C178.841 689.513 179.101 690.327 179.621 690.9C180.154 691.46 180.821 691.74 181.621 691.74ZM193.795 682.74C194.621 682.74 195.348 682.907 195.975 683.24C196.601 683.56 197.095 683.98 197.455 684.5V682.92H200.275V694.08C200.275 695.107 200.068 696.02 199.655 696.82C199.241 697.633 198.621 698.273 197.795 698.74C196.968 699.22 195.968 699.46 194.795 699.46C193.221 699.46 191.928 699.093 190.915 698.36C189.915 697.627 189.348 696.627 189.215 695.36H191.995C192.141 695.867 192.455 696.267 192.935 696.56C193.428 696.867 194.021 697.02 194.715 697.02C195.528 697.02 196.188 696.773 196.695 696.28C197.201 695.8 197.455 695.067 197.455 694.08V692.36C197.095 692.88 196.595 693.313 195.955 693.66C195.328 694.007 194.608 694.18 193.795 694.18C192.861 694.18 192.008 693.94 191.235 693.46C190.461 692.98 189.848 692.307 189.395 691.44C188.955 690.56 188.735 689.553 188.735 688.42C188.735 687.3 188.955 686.307 189.395 685.44C189.848 684.573 190.455 683.907 191.215 683.44C191.988 682.973 192.848 682.74 193.795 682.74ZM197.455 688.46C197.455 687.78 197.321 687.2 197.055 686.72C196.788 686.227 196.428 685.853 195.975 685.6C195.521 685.333 195.035 685.2 194.515 685.2C193.995 685.2 193.515 685.327 193.075 685.58C192.635 685.833 192.275 686.207 191.995 686.7C191.728 687.18 191.595 687.753 191.595 688.42C191.595 689.087 191.728 689.673 191.995 690.18C192.275 690.673 192.635 691.053 193.075 691.32C193.528 691.587 194.008 691.72 194.515 691.72C195.035 691.72 195.521 691.593 195.975 691.34C196.428 691.073 196.788 690.7 197.055 690.22C197.321 689.727 197.455 689.14 197.455 688.46ZM210.575 680.04V694H207.775V680.04H210.575ZM219.481 682.76C220.801 682.76 221.868 683.18 222.681 684.02C223.495 684.847 223.901 686.007 223.901 687.5V694H221.101V687.88C221.101 687 220.881 686.327 220.441 685.86C220.001 685.38 219.401 685.14 218.641 685.14C217.868 685.14 217.255 685.38 216.801 685.86C216.361 686.327 216.141 687 216.141 687.88V694H213.341V682.92H216.141V684.3C216.515 683.82 216.988 683.447 217.561 683.18C218.148 682.9 218.788 682.76 219.481 682.76Z" fill="black"/>
<g clip-path="url(#clip0_26_60)">
<path d="M365 220.107V341.322C364.998 343.178 364.532 345.004 363.645 346.634C363.049 347.727 362.274 348.712 361.351 349.546C361.282 349.61 361.214 349.669 361.145 349.723C360.308 350.456 359.363 351.055 358.342 351.5C357.89 351.7 357.424 351.869 356.948 352.004C356.635 352.092 356.312 352.17 355.989 352.229C355.552 352.316 355.109 352.373 354.664 352.4C354.414 352.42 354.16 352.43 353.901 352.43H241.947L236.346 352.733L231.053 352.43H37.0994C36.8744 352.43 36.6445 352.425 36.4244 352.405C35.8183 352.371 35.2161 352.286 34.6242 352.151C32.1736 351.59 29.9858 350.214 28.4191 348.246C26.8523 346.279 25.9994 343.838 26 341.322V220.107C26.0035 217.163 27.1741 214.339 29.2549 212.257C31.3357 210.175 34.1568 209.004 37.0994 209H353.901C356.843 209.004 359.664 210.175 361.745 212.257C363.826 214.339 364.996 217.163 365 220.107Z" fill="#F2F2F2"/>
<path d="M105.168 209C87.8088 249.52 91.1378 298.728 105.168 352.43H202.559C214.738 298.666 220.903 247.843 202.559 209H105.168Z" fill="#E4E4E4"/>
<path d="M65.8875 209C34.1673 248.064 43.0169 298.314 65.8875 352.43H105.169C91.0026 301.305 88.6867 252.954 105.169 209H65.8875Z" fill="#CACACA"/>
<path d="M184.554 212.325H169.823V227.066H184.554V212.325Z" fill="white"/>
<path d="M160.821 212.325H146.09V227.066H160.821V212.325Z" fill="white"/>
<path d="M137.088 212.325H122.357V227.066H137.088V212.325Z" fill="white"/>
<path d="M184.145 245.903H169.414V260.644H184.145V245.903Z" fill="white"/>
<path d="M160.412 245.903H145.681V260.644H160.412V245.903Z" fill="white"/>
<path d="M136.678 245.903H121.947V260.644H136.678V245.903Z" fill="white"/>
<path d="M183.736 279.48H169.005V294.221H183.736V279.48Z" fill="white"/>
<path d="M160.003 279.48H145.272V294.221H160.003V279.48Z" fill="white"/>
<path d="M136.269 279.48H121.538V294.221H136.269V279.48Z" fill="white"/>
<path d="M183.327 313.058H168.596V327.799H183.327V313.058Z" fill="white"/>
<path d="M159.593 313.058H144.862V327.799H159.593V313.058Z" fill="white"/>
<path d="M135.86 313.058H121.129V327.799H135.86V313.058Z" fill="white"/>
<path d="M182.918 346.634H168.184V352.43H182.918V346.634Z" fill="white"/>
<path d="M159.183 346.634H144.454V352.43H159.183V346.634Z" fill="white"/>
<path d="M135.449 346.634H120.719V352.43H135.449V346.634Z" fill="white"/>
<path d="M26 285.184V341.322C25.9994 343.838 26.8523 346.279 28.4191 348.246C29.9858 350.214 32.1736 351.59 34.6242 352.151C35.2161 352.286 35.8183 352.371 36.4244 352.405C36.6445 352.425 36.8744 352.43 37.0994 352.43H79.7997C88.7646 326.157 105.247 213.406 37.7403 223.196L26 285.184Z" fill="#E4E4E4"/>
<path d="M60.5682 313.058H45.8372V327.799H60.5682V313.058Z" fill="white"/>
<path d="M36.8353 313.058H26V327.797H36.8353V313.058Z" fill="white"/>
<path d="M60.1593 346.634H45.4301V352.43H60.1593V346.634Z" fill="white"/>
<path d="M27.3502 346.634C28.1056 348.014 29.1442 349.22 30.3978 350.17C31.6514 351.121 33.0917 351.796 34.6242 352.151C35.2161 352.286 35.8183 352.371 36.4244 352.405V346.634H27.3502Z" fill="white"/>
<path d="M365 300.932V341.323C364.998 343.178 364.532 345.004 363.645 346.634L362.882 345.993L361.409 344.759L353.26 337.94L355.285 346.291L352.903 346.418L352.717 346.428L348.392 346.663L344.611 346.869H344.596L339.201 347.162L333.932 347.446L332.176 347.539L320.989 348.146L316.219 348.406L314.057 348.523L308.339 348.832L300.668 349.248L299.245 349.326L276.733 350.545L262.415 351.323L260.194 351.441L260.027 351.451L259.122 351.5H259.118L257.156 351.607L254.338 351.759L249.774 352.004L247.759 352.112L241.947 352.43L236.346 352.733L231.053 352.43L213.986 351.451L202.921 350.814L202.559 350.795L182.918 349.669L168.184 348.822L159.183 348.308L144.454 347.461L137.665 347.074L135.449 346.947L129.999 346.634L105.169 345.209L103.319 345.102L103.217 345.097L94.2207 344.583L88.605 344.26L100.404 333.289L100.565 333.138L105.169 328.859C108.48 322.912 111.66 316.905 121.13 314.017L122.163 313.058L136.383 299.836L138.809 299.801L202.559 298.959L212.186 298.832L231.91 298.573L239.056 298.48L244.335 298.788L290.063 301.471L293.042 301.647L308.246 302.538L322.314 303.36L329.001 303.752L330.635 303.85L330.743 303.855L331.565 303.904L333.766 303.708L336.471 303.468L337.474 303.38L337.934 303.336L347.566 302.484L348.373 302.41L350.677 302.205L364.022 320.611L365 300.932Z" fill="#3F3D56"/>
<path d="M313.365 344.591C306.588 334.774 301.648 309.847 303.581 299.555C303.497 299.219 307.54 304.865 307.553 304.515C307.617 302.786 308.848 301.446 310.302 301.523L328.578 302.481C329.03 302.52 329.464 302.677 329.837 302.937C330.209 303.196 330.507 303.549 330.701 303.96L344.518 330.439C344.737 330.863 344.867 331.326 344.903 331.801C345.038 333.524 343.972 335.05 342.522 335.21L318.02 337.918C317.939 337.927 317.858 337.932 317.777 337.932C316.613 337.929 313.701 345.916 313.365 344.591Z" fill="white"/>
<path d="M235.571 344.5L235.75 345.474L236.446 349.223C236.586 349.986 236.804 350.732 237.095 351.451C237.182 351.676 237.28 351.896 237.385 352.112C237.437 352.219 237.489 352.322 237.547 352.43H287.72L296.047 351.465L296.152 351.451C297.868 351.215 299.463 350.432 300.701 349.218C301.728 348.195 302.542 346.979 303.098 345.64C303.654 344.301 303.94 342.866 303.94 341.416C303.952 341.011 303.94 340.605 303.905 340.202C303.86 339.629 303.771 339.061 303.639 338.503C304.576 327.856 302.107 317.477 296.424 307.35C295.958 305.185 294.818 303.224 293.167 301.75C291.811 300.548 290.085 299.847 288.276 299.762L247.775 298.098C246.232 298.048 244.71 298.463 243.406 299.287C240.925 300.824 239.123 303.722 238.77 307.208C235.36 318.164 234.222 329.701 235.426 341.112C235.314 342.242 235.363 343.383 235.571 344.5Z" fill="white"/>
<path d="M220.743 349.491L116.679 346.46C115.37 346.422 96.0221 354.063 95.0827 352.874C93.0257 350.272 92.9755 345.988 94.9706 343.305L140.431 298.19C140.848 297.58 141.402 297.076 142.049 296.719C142.695 296.362 143.417 296.162 144.155 296.135H227.923C228.319 296.135 228.713 296.194 229.092 296.309C231.884 297.151 233.624 300.786 232.978 304.427L225.914 344.25C225.362 347.314 223.271 349.482 220.858 349.493C220.82 349.493 220.781 349.492 220.743 349.491Z" fill="white"/>
<path d="M329.532 305.601L241.09 299.498L136.383 299.837C149.263 286.207 205.874 269.59 266.504 289.664C327.16 291.698 331.565 303.906 331.565 303.906L332.322 305.092L329.532 305.601Z" fill="#F1F1AB"/>
<path d="M364.57 344.377C364.347 345.162 364.037 345.919 363.645 346.634C363.049 347.727 362.274 348.712 361.351 349.546C361.282 349.61 361.214 349.669 361.145 349.723C360.308 350.456 359.362 351.055 358.342 351.5C357.89 351.7 357.424 351.869 356.948 352.004C356.635 352.092 356.312 352.17 355.989 352.229C355.552 352.316 355.109 352.373 354.664 352.4C354.414 352.42 354.16 352.43 353.901 352.43H241.947L236.346 352.733L231.053 352.43H37.0995C36.8744 352.43 36.6445 352.425 36.4244 352.405C35.8183 352.371 35.2161 352.286 34.6242 352.151L36.4244 351.886L39.4084 351.451L45.4301 350.57L60.1593 348.416L65.8876 347.579L79.7998 345.547L82.1234 345.209L88.605 344.26L94.3235 344.372L103.075 344.548H103.182L105.169 344.588L118.469 344.852L123.356 344.95L159.203 345.66L162.481 345.723L167.367 345.821L182.928 346.134L202.559 346.521L203.87 346.546L224.89 346.967L225.164 346.972L235.887 346.213L246.379 345.474L254.329 344.916L256.892 344.734L256.99 344.73L257.557 344.69L257.929 344.661L261.05 344.441L272.726 343.618L277.926 343.251L280.167 343.095L282.51 342.928L303.941 341.416L309.909 340.995H309.914L313.177 340.764L319.159 340.343H319.164L325.313 339.908H325.318L327.705 339.741L328.62 339.678L335.586 339.188L339.798 338.89L347.028 338.38L349.263 338.224L352.267 338.008L353.089 337.95L353.26 337.94C353.26 337.94 355.774 337.994 359.052 339.815C360.09 340.393 361.071 341.069 361.982 341.832C362.613 342.357 363.214 342.917 363.782 343.511C364.046 343.785 364.305 344.074 364.57 344.377Z" fill="#F1F1AB"/>
<path d="M253.668 352.43H261.255L260.561 351.784L260.203 351.451L260.194 351.441L258.594 349.958L257.322 348.773L256.29 349.806L255.874 350.222L254.646 351.451L254.338 351.759L253.668 352.43Z" fill="#CACACA"/>
<path d="M295.234 352.43H306.9L308.696 351.451L314.057 348.523L315.319 347.833L325.313 339.908H325.318L327.827 337.92L329.129 336.887L330.738 335.61L338.687 329.31C338.907 329.135 339.112 328.942 339.299 328.732C339.732 328.241 340.06 327.667 340.263 327.045C340.467 326.423 340.541 325.766 340.482 325.114C340.479 325.058 340.471 325.003 340.458 324.948C340.371 324.231 340.123 323.542 339.732 322.934C339.342 322.327 338.819 321.815 338.203 321.438C337.334 320.905 336.319 320.662 335.304 320.744C334.288 320.826 333.325 321.228 332.553 321.893L326.722 326.813L324.393 328.776L315.378 336.383L309.914 340.994H309.909L308.867 341.876L299.245 349.326L296.496 351.451L295.234 352.43Z" fill="#FFB6B6"/>
<path d="M335.627 335.234C335.935 335.276 336.248 335.216 336.519 335.063C336.789 334.91 337.002 334.672 337.124 334.386C337.282 334.037 337.545 333.745 337.876 333.552C337.941 333.515 338.007 333.483 338.076 333.455C338.494 333.297 338.868 333.041 339.167 332.708C339.465 332.375 339.678 331.974 339.788 331.541C340.131 330.11 341.231 328.721 342.335 327.65C343.544 326.478 344.835 325.354 345.728 323.926C347.017 321.867 347.379 318.977 344.892 317.259C343.823 316.545 342.541 316.221 341.261 316.343C338.583 316.561 336.367 318.197 334.263 319.782L334.79 318.747C332.521 320.518 329.919 321.813 327.139 322.554C327.62 322.991 327.203 323.867 326.585 324.07C325.968 324.274 325.302 324.059 324.666 323.924C323.864 323.754 322.873 323.768 322.557 324.726C322.488 324.957 322.467 325.201 322.496 325.44C322.525 325.68 322.604 325.911 322.726 326.119C324.96 330.096 327.991 333.568 331.63 336.317C332.439 336.927 333.378 337.527 334.383 337.408C335.389 337.288 336.244 336.037 335.627 335.234Z" fill="#F1F1AB"/>
<path d="M333.409 343.334L333.932 347.446L334.441 351.451L334.495 351.877L334.568 352.43H353.901C354.16 352.43 354.414 352.42 354.664 352.4C355.109 352.373 355.552 352.316 355.989 352.229L356.209 351.186L356.337 350.565L348.251 348.014L344.611 346.869H344.601L339.343 345.204L333.409 343.334Z" fill="#FFB6B6"/>
<path d="M325.9 333.671C326.296 334.547 326.83 335.717 327.426 337.044C327.558 337.328 327.69 337.622 327.827 337.92C328.082 338.488 328.346 339.076 328.62 339.678C329.828 342.355 331.144 345.263 332.176 347.539C333.032 349.444 333.698 350.912 333.937 351.451C334.011 351.602 334.045 351.681 334.045 351.681L334.495 351.877L335.781 352.43H353.901C354.16 352.43 354.414 352.42 354.664 352.4C355.109 352.373 355.552 352.316 355.989 352.229C356.312 352.17 356.635 352.092 356.948 352.004C357.424 351.869 357.89 351.7 358.342 351.5C359.363 351.055 360.308 350.456 361.145 349.723C361.184 349.385 361.263 348.842 361.346 348.181C361.477 347.194 361.547 346.2 361.556 345.204C361.556 344.406 359.6 343.114 359.052 339.815C358.867 338.61 358.866 337.383 359.047 336.178C360.059 328.747 359.702 317.375 352.546 315.153L347.399 306.136H337.582L335.987 310.84V310.845L335.072 313.542L334.524 315.153L334.407 315.309L330.904 319.906C330.904 319.906 330.347 320.616 329.584 321.737V321.742C328.482 323.344 327.525 325.042 326.722 326.813C326.198 327.961 325.82 329.169 325.597 330.411C325.379 331.504 325.484 332.637 325.9 333.671Z" fill="#2F2E41"/>
<path d="M346.591 297.048C339.377 302.539 331.344 306.91 329.829 312.953C329.829 312.953 330.736 303.458 326.505 305.257C319.396 308.281 321.802 291.836 323.795 289.147C327.118 284.665 338.322 282.118 338.322 282.118L346.27 286.484L346.591 297.048Z" fill="#2F2E41"/>
<path d="M334.03 303.712C340.91 303.712 346.488 298.13 346.488 291.245C346.488 284.359 340.91 278.778 334.03 278.778C327.149 278.778 321.571 284.359 321.571 291.245C321.571 298.13 327.149 303.712 334.03 303.712Z" fill="#FFB6B6"/>
<path d="M338.516 286.475L338.996 288.582L330.615 290.491C330.608 290.065 330.512 289.645 330.335 289.257C330.158 288.87 329.902 288.523 329.585 288.239C329.765 289.065 329.745 289.923 329.525 290.739C325.005 293.277 325.265 294.176 321.612 293.529C321.367 293.585 321.113 293.592 320.865 293.55C320.618 293.507 320.381 293.417 320.168 293.283C319.955 293.149 319.771 292.974 319.626 292.769C319.48 292.564 319.377 292.332 319.321 292.087C317.851 285.627 317.369 279.024 323.793 277.42C325.354 277.03 326.978 276.955 328.569 277.2C330.159 277.446 331.685 278.007 333.057 278.85C334.428 279.693 335.617 280.802 336.555 282.111C337.492 283.421 338.159 284.904 338.516 286.475Z" fill="#2F2E41"/>
<path d="M336.467 294.881C336.056 293.082 335.252 291.396 334.112 289.945C332.971 288.494 331.523 287.314 329.872 286.491C328.221 285.668 326.408 285.222 324.564 285.186C322.72 285.149 320.89 285.522 319.208 286.278C319.79 284.557 320.97 283.101 322.533 282.175L331.966 278.077C336.619 277.017 343.984 274.008 347.345 276.889C350.442 279.536 348.934 284.717 351.786 287.618C354.911 290.798 355.176 294.558 354.29 296.721C353.265 299.223 351.214 302.636 348.654 303.375C348.521 302.494 348.082 301.689 347.414 301.1C347.599 301.939 347.615 302.807 347.462 303.652L331.966 316.019C333.413 314.76 334.646 311.514 335.495 307.858C335.998 305.695 338.997 304.935 336.565 301.263C334.132 297.59 336.797 296.333 336.467 294.881Z" fill="#2F2E41"/>
<path d="M348.878 281.087L348.834 281.174C348.781 281.29 348.728 281.406 348.685 281.527L348.68 281.532C348.443 281.619 348.177 281.478 347.917 281.256C347.957 281.779 347.986 282.285 348.008 282.78L339.758 279.55C341.193 279.798 341.405 274.69 342.434 275.668C342.492 275.722 342.545 275.775 342.599 275.828C342.47 275.52 342.383 275.197 342.338 274.866C342.294 274.451 342.326 274.032 342.434 273.629C342.436 273.627 342.438 273.624 342.438 273.622C342.439 273.619 342.439 273.617 342.439 273.614C342.542 273.25 342.702 272.904 342.913 272.589C343.216 272.132 343.601 271.734 344.048 271.415C344.617 270.979 345.281 270.684 345.986 270.553C346.691 270.422 347.417 270.459 348.105 270.661C349.681 271.257 350.983 272.411 351.766 273.904C352.48 275.053 352.844 276.385 352.814 277.737C352.785 278.092 352.709 278.442 352.587 278.776C352.437 279.247 352.18 279.676 351.836 280.031C351.493 280.385 351.072 280.656 350.607 280.821C350.491 280.86 350.356 280.903 350.211 280.956C350.134 280.327 350.129 279.692 350.196 279.062C349.659 279.668 349.215 280.35 348.878 281.087Z" fill="#2F2E41"/>
<path d="M340.889 279.221C340.899 279.491 340.932 279.759 340.985 280.024C340.989 280.058 340.996 280.092 341.005 280.125C341.343 281.628 343.173 278.501 344.589 279.55C345.471 280.186 346.449 280.675 347.487 281C347.53 280.879 347.917 281.116 347.97 281C347.984 280.971 347.955 280.546 347.97 280.517C347.087 280.177 346.27 279.686 345.555 279.067C344.226 278.085 344.415 279.004 344.106 277.616C343.748 276.017 341.642 276.703 342.724 275.944L342.599 275.77C341.83 276.301 341.263 277.076 340.99 277.969C340.99 277.972 340.99 277.975 340.989 277.977C340.988 277.98 340.987 277.982 340.985 277.984C340.904 278.391 340.872 278.806 340.889 279.221Z" fill="#F1F1AB"/>
<path d="M338.819 352.43H347.796L347.898 351.451L348.251 348.014L348.392 346.663L348.999 340.784L349.263 338.224L349.845 332.58L350.041 330.68C350.165 329.422 349.791 328.166 348.999 327.182C348.206 326.197 347.059 325.564 345.805 325.418C345.623 325.397 345.44 325.385 345.257 325.384H345.242C345.02 325.386 344.798 325.401 344.577 325.428C343.446 325.59 342.409 326.149 341.652 327.004C340.935 327.807 340.511 328.828 340.448 329.902L340.443 329.975V329.98L340.018 335.874L339.798 338.89L339.68 340.559L339.343 345.204L339.201 347.162L338.893 351.451L338.819 352.43Z" fill="#FFB6B6"/>
<path d="M352.14 337.011C352.385 336.82 352.561 336.553 352.64 336.253C352.719 335.952 352.697 335.634 352.578 335.346C352.438 334.989 352.413 334.597 352.506 334.225C352.525 334.153 352.548 334.083 352.576 334.014C352.756 333.604 352.833 333.158 352.803 332.711C352.773 332.265 352.635 331.833 352.402 331.451C351.617 330.206 351.391 328.449 351.396 326.91C351.401 325.226 351.498 323.516 351.1 321.88C350.526 319.519 348.711 317.242 345.746 317.825C344.488 318.092 343.361 318.785 342.555 319.787C340.841 321.858 340.465 324.588 340.131 327.202L339.758 326.102C339.442 328.964 338.552 331.733 337.141 334.242C337.79 334.203 338.125 335.112 337.84 335.697C337.554 336.282 336.936 336.609 336.396 336.97C335.714 337.426 335.033 338.146 335.497 339.041C335.615 339.252 335.774 339.437 335.966 339.583C336.158 339.73 336.378 339.835 336.612 339.892C341.017 341.068 345.618 341.319 350.125 340.63C351.126 340.477 352.21 340.223 352.827 339.419C353.443 338.616 353.145 337.13 352.14 337.011Z" fill="#F1F1AB"/>
<path d="M256.892 347.231C256.892 348.61 257.439 349.932 258.413 350.907C259.388 351.882 260.709 352.43 262.087 352.43H272.731C274.109 352.43 275.431 351.882 276.405 350.907C277.379 349.932 277.926 348.61 277.926 347.231V343.267C277.926 342.429 277.724 341.602 277.335 340.859C276.947 340.115 276.384 339.477 275.696 338.998C275.007 338.519 274.213 338.215 273.382 338.11C272.55 338.005 271.705 338.102 270.92 338.395L260.275 342.359C259.282 342.728 258.425 343.393 257.821 344.264C257.216 345.135 256.892 346.17 256.892 347.231Z" fill="#CACACA"/>
<path d="M37.0994 351.451C36.8744 351.451 36.6494 351.441 36.4244 351.426V351.886L39.4084 351.451H37.0994ZM79.7997 351.451V352.43H105.168V351.451H79.7997ZM213.986 351.451L231.053 352.43H241.947L247.759 352.112L249.774 352.004L254.338 351.759L257.156 351.607L259.118 351.5H259.122L260.027 351.451H213.986ZM353.901 351.451H352.981L353.035 352.43H353.901C354.16 352.43 354.414 352.42 354.664 352.4L354.708 351.788L354.737 351.412C354.459 351.439 354.18 351.452 353.901 351.451ZM37.0994 351.451C36.8744 351.451 36.6494 351.441 36.4244 351.426V351.886L39.4084 351.451H37.0994ZM79.7997 351.451V352.43H105.168V351.451H79.7997ZM213.986 351.451L231.053 352.43H241.947L247.759 352.112L249.774 352.004L254.338 351.759L257.156 351.607L259.118 351.5H259.122L260.027 351.451H213.986ZM37.0994 351.451C36.8744 351.451 36.6494 351.441 36.4244 351.426V351.886L39.4084 351.451H37.0994ZM45.4301 351.451V352.43H135.449V351.451H45.4301ZM213.986 351.451L231.053 352.43H241.947L247.759 352.112L249.774 352.004L254.338 351.759L257.156 351.607L259.118 351.5H259.122L260.027 351.451H213.986ZM353.901 351.451H315.569C315.515 351.774 315.466 352.102 315.422 352.43H353.901C354.16 352.43 354.414 352.42 354.664 352.4L354.708 351.788L354.737 351.412C354.459 351.439 354.18 351.452 353.901 351.451ZM37.0994 351.451C36.8744 351.451 36.6494 351.441 36.4244 351.426V351.886L39.4084 351.451H37.0994ZM37.0994 351.451C36.8744 351.451 36.6494 351.441 36.4244 351.426V351.886L39.4084 351.451H37.0994ZM37.0994 351.451C36.8744 351.451 36.6494 351.441 36.4244 351.426V351.886L39.4084 351.451H37.0994ZM37.0994 351.451C36.8744 351.451 36.6494 351.441 36.4244 351.426V351.886L39.4084 351.451H37.0994ZM37.0994 351.451C36.8744 351.451 36.6494 351.441 36.4244 351.426V351.886L39.4084 351.451H37.0994ZM37.0994 351.451C36.8744 351.451 36.6494 351.441 36.4244 351.426V351.886L39.4084 351.451H37.0994ZM37.0994 351.451C36.8744 351.451 36.6494 351.441 36.4244 351.426V351.886L39.4084 351.451H37.0994ZM37.0994 351.451C36.8744 351.451 36.6494 351.441 36.4244 351.426C34.8146 351.32 33.2537 350.83 31.8723 349.996C30.4909 349.162 29.3294 348.009 28.485 346.634H27.3501C28.1056 348.014 29.1442 349.22 30.3978 350.17C31.6514 351.121 33.0917 351.796 34.6242 352.151L36.4244 351.886L39.4084 351.451H37.0994ZM353.901 209H37.0994C34.1568 209.004 31.3357 210.175 29.2549 212.257C27.1741 214.339 26.0035 217.162 26 220.107V341.322C25.9994 343.838 26.8523 346.279 28.4191 348.246C29.9858 350.214 32.1736 351.59 34.6242 352.151C35.2161 352.286 35.8183 352.371 36.4244 352.405C36.6445 352.425 36.8744 352.43 37.0994 352.43H353.901C354.16 352.43 354.414 352.42 354.664 352.4C355.109 352.373 355.552 352.316 355.989 352.229C356.312 352.17 356.635 352.092 356.948 352.004C357.424 351.869 357.89 351.7 358.342 351.5C359.363 351.055 360.308 350.456 361.145 349.723C361.214 349.669 361.282 349.61 361.351 349.546C362.274 348.712 363.049 347.727 363.645 346.634C364.532 345.004 364.998 343.178 365 341.322V220.107C364.996 217.162 363.826 214.339 361.745 212.257C359.664 210.175 356.843 209.004 353.901 209ZM364.022 341.322C364.022 342.058 363.941 342.792 363.782 343.511C363.595 344.375 363.292 345.21 362.882 345.993C362.501 346.729 362.029 347.415 361.478 348.034V348.039L361.473 348.044C361.434 348.088 361.39 348.137 361.346 348.181C360.138 349.501 358.599 350.474 356.889 351C356.733 351.049 356.576 351.093 356.42 351.137C356.351 351.157 356.283 351.172 356.209 351.186C355.725 351.299 355.233 351.375 354.737 351.412C354.459 351.439 354.18 351.452 353.901 351.451H37.0994C36.8744 351.451 36.6494 351.441 36.4244 351.426C33.8635 351.254 31.4636 350.114 29.71 348.239C27.9565 346.363 26.9801 343.891 26.9783 341.322V286.188C26.9783 285.85 26.9783 285.517 26.9832 285.184C27.2382 265.145 35.3745 246.013 49.6287 231.936C63.8829 217.859 83.1066 209.97 103.133 209.979H353.901C355.23 209.979 356.546 210.241 357.774 210.749C359.002 211.258 360.118 212.004 361.058 212.945C361.998 213.885 362.743 215.002 363.252 216.231C363.76 217.46 364.022 218.777 364.022 220.107L364.022 341.322ZM37.0994 351.451C36.8744 351.451 36.6494 351.441 36.4244 351.426V351.886L39.4084 351.451H37.0994ZM37.0994 351.451C36.8744 351.451 36.6494 351.441 36.4244 351.426V351.886L39.4084 351.451H37.0994ZM37.0994 351.451C36.8744 351.451 36.6494 351.441 36.4244 351.426V351.886L39.4084 351.451H37.0994ZM37.0994 351.451C36.8744 351.451 36.6494 351.441 36.4244 351.426V351.886L39.4084 351.451H37.0994ZM37.0994 351.451C36.8744 351.451 36.6494 351.441 36.4244 351.426V351.886L39.4084 351.451H37.0994ZM37.0994 351.451C36.8744 351.451 36.6494 351.441 36.4244 351.426V351.886L39.4084 351.451H37.0994ZM37.0994 351.451C36.8744 351.451 36.6494 351.441 36.4244 351.426V351.886L39.4084 351.451H37.0994ZM37.0994 351.451C36.8744 351.451 36.6494 351.441 36.4244 351.426V351.886L39.4084 351.451H37.0994ZM213.986 351.451L231.053 352.43H241.947L247.759 352.112L249.774 352.004L254.338 351.759L257.156 351.607L259.118 351.5H259.122L260.027 351.451H213.986ZM79.7997 351.451V352.43H105.168V351.451H79.7997ZM37.0994 351.451C36.8744 351.451 36.6494 351.441 36.4244 351.426V351.886L39.4084 351.451H37.0994ZM213.986 351.451L231.053 352.43H241.947L247.759 352.112L249.774 352.004L254.338 351.759L257.156 351.607L259.118 351.5H259.122L260.027 351.451H213.986ZM79.7997 351.451V352.43H105.168V351.451H79.7997ZM37.0994 351.451C36.8744 351.451 36.6494 351.441 36.4244 351.426V351.886L39.4084 351.451H37.0994ZM353.901 351.451H352.981L353.035 352.43H353.901C354.16 352.43 354.414 352.42 354.664 352.4L354.708 351.788L354.737 351.412C354.459 351.439 354.18 351.452 353.901 351.451ZM213.986 351.451L231.053 352.43H241.947L247.759 352.112L249.774 352.004L254.338 351.759L257.156 351.607L259.118 351.5H259.122L260.027 351.451H213.986ZM79.7997 351.451V352.43H105.168V351.451H79.7997Z" fill="#3F3D56"/>
</g>
<defs>
<clipPath id="clip0_26_60">
<rect width="339" height="144" fill="white" transform="translate(26 209)"/>
</clipPath>
</defs>
</svg>
